<?xml version="1.0" encoding="UTF-8"?>
<svg version="1.1" xmlns="http://www.w3.org/2000/svg" width="312" height="360">
<path d="M0,0 L5,0 L5,1 L11,1 L11,0 L53,0 L53,1 L58,1 L58,2 L63,2 L63,1 L59,1 L59,0 L64,0 L64,1 L67,1 L67,2 L71,2 L71,3 L73,3 L73,5 L75,5 L75,6 L78,6 L78,5 L81,5 L81,6 L83,6 L83,7 L85,7 L85,8 L84,8 L84,9 L85,9 L85,10 L88,10 L88,11 L89,11 L89,10 L90,10 L90,11 L91,11 L91,10 L93,10 L93,11 L94,11 L94,12 L96,12 L96,13 L95,13 L95,14 L96,14 L96,15 L98,15 L98,16 L99,16 L99,15 L100,15 L100,17 L101,17 L101,16 L104,16 L104,17 L105,17 L105,18 L106,18 L106,19 L108,19 L108,20 L109,20 L109,21 L111,21 L111,22 L112,22 L112,23 L111,23 L111,24 L112,24 L112,25 L113,25 L113,26 L114,26 L114,27 L115,27 L115,26 L116,26 L116,28 L117,28 L117,29 L118,29 L118,30 L119,30 L119,31 L120,31 L120,32 L121,32 L121,33 L122,33 L122,34 L123,34 L123,35 L124,35 L124,36 L125,36 L125,38 L129,38 L129,39 L130,39 L130,41 L129,41 L129,42 L130,42 L130,43 L131,43 L131,45 L132,45 L132,46 L133,46 L133,48 L134,48 L134,49 L135,49 L135,50 L136,50 L136,52 L137,52 L137,54 L138,54 L138,56 L139,56 L139,58 L140,58 L140,59 L141,59 L141,61 L142,61 L142,63 L143,63 L143,64 L144,64 L144,66 L145,66 L145,71 L146,71 L146,72 L150,72 L150,73 L149,73 L149,76 L150,76 L150,83 L151,83 L151,86 L152,86 L152,88 L153,88 L153,95 L152,95 L152,101 L153,101 L153,117 L154,117 L154,141 L155,141 L155,117 L156,117 L156,139 L157,139 L157,140 L156,140 L156,141 L157,141 L157,142 L158,142 L158,161 L157,161 L157,162 L158,162 L158,171 L159,171 L159,179 L158,179 L158,189 L159,189 L159,201 L160,201 L160,193 L161,193 L161,201 L162,201 L162,209 L163,209 L163,215 L164,215 L164,223 L163,223 L163,230 L164,230 L164,239 L165,239 L165,245 L166,245 L166,250 L167,250 L167,255 L168,255 L168,260 L169,260 L169,265 L170,265 L170,272 L171,272 L171,275 L172,275 L172,272 L173,272 L173,273 L177,273 L177,274 L173,274 L173,275 L177,275 L177,276 L178,276 L178,278 L177,278 L177,279 L178,279 L178,291 L179,291 L179,294 L180,294 L180,295 L181,295 L181,297 L182,297 L182,299 L183,299 L183,300 L184,300 L184,303 L185,303 L185,307 L186,307 L186,318 L185,318 L185,320 L184,320 L184,321 L183,321 L183,322 L182,322 L182,323 L181,323 L181,324 L180,324 L180,325 L179,325 L179,327 L180,327 L180,329 L179,329 L179,330 L178,330 L178,329 L177,329 L177,330 L176,330 L176,332 L175,332 L175,333 L174,333 L174,334 L173,334 L173,335 L172,335 L172,336 L171,336 L171,337 L172,337 L172,338 L171,338 L171,339 L169,339 L169,338 L158,338 L158,337 L157,337 L157,339 L156,339 L156,338 L155,338 L155,337 L154,337 L154,336 L153,336 L153,335 L154,335 L154,334 L153,334 L153,332 L152,332 L152,328 L151,328 L151,324 L150,324 L150,328 L149,328 L149,325 L148,325 L148,324 L146,324 L146,323 L148,323 L148,322 L146,322 L146,321 L145,321 L145,322 L143,322 L143,321 L144,321 L144,320 L143,320 L143,319 L142,319 L142,318 L141,318 L141,316 L140,316 L140,308 L141,308 L141,307 L142,307 L142,306 L141,306 L141,304 L143,304 L143,305 L144,305 L144,304 L145,304 L145,303 L146,303 L146,302 L147,302 L147,301 L148,301 L148,300 L149,300 L149,299 L150,299 L150,298 L151,298 L151,294 L150,294 L150,292 L149,292 L149,289 L148,289 L148,287 L147,287 L147,283 L146,283 L146,282 L145,282 L145,280 L146,280 L146,279 L145,279 L145,278 L146,278 L146,277 L148,277 L148,274 L147,274 L147,270 L148,270 L148,266 L147,266 L147,260 L146,260 L146,258 L145,258 L145,260 L144,260 L144,263 L143,263 L143,266 L142,266 L142,270 L141,270 L141,272 L140,272 L140,275 L139,275 L139,277 L138,277 L138,279 L137,279 L137,281 L136,281 L136,283 L135,283 L135,285 L134,285 L134,286 L133,286 L133,287 L132,287 L132,289 L131,289 L131,290 L130,290 L130,291 L131,291 L131,293 L130,293 L130,292 L129,292 L129,293 L128,293 L128,294 L127,294 L127,295 L126,295 L126,296 L125,296 L125,297 L124,297 L124,298 L123,298 L123,299 L122,299 L122,300 L121,300 L121,301 L122,301 L122,302 L121,302 L121,303 L120,303 L120,304 L119,304 L119,305 L116,305 L116,304 L115,304 L115,305 L114,305 L114,306 L115,306 L115,307 L114,307 L114,308 L112,308 L112,309 L111,309 L111,310 L109,310 L109,311 L107,311 L107,309 L106,309 L106,311 L105,311 L105,312 L104,312 L104,313 L102,313 L102,314 L99,314 L99,315 L96,315 L96,314 L93,314 L93,315 L89,315 L89,316 L86,316 L86,317 L88,317 L88,318 L86,318 L86,319 L84,319 L84,320 L82,320 L82,319 L81,319 L81,320 L80,320 L80,321 L79,321 L79,322 L78,322 L78,324 L79,324 L79,326 L78,326 L78,328 L77,328 L77,326 L76,326 L76,328 L75,328 L75,330 L74,330 L74,332 L73,332 L73,334 L72,334 L72,336 L70,336 L70,337 L71,337 L71,338 L73,338 L73,339 L74,339 L74,340 L73,340 L73,341 L74,341 L74,342 L75,342 L75,343 L77,343 L77,344 L76,344 L76,345 L77,345 L77,348 L78,348 L78,351 L77,351 L77,354 L78,354 L78,357 L77,357 L77,359 L75,359 L75,360 L54,360 L54,359 L49,359 L49,360 L45,360 L45,359 L43,359 L43,358 L42,358 L42,357 L41,357 L41,354 L40,354 L40,355 L33,355 L33,354 L31,354 L31,353 L30,353 L30,352 L31,352 L31,351 L30,351 L30,339 L29,339 L29,333 L28,333 L28,340 L29,340 L29,352 L28,352 L28,355 L27,355 L27,354 L26,354 L26,355 L24,355 L24,353 L21,353 L21,354 L20,354 L20,355 L19,355 L19,354 L18,354 L18,355 L17,355 L17,356 L18,356 L18,357 L17,357 L17,358 L15,358 L15,355 L14,355 L14,357 L13,357 L13,358 L14,358 L14,359 L12,359 L12,360 L8,360 L8,359 L3,359 L3,360 L0,360 L0,359 L-3,359 L-3,360 L-14,360 L-14,359 L-16,359 L-16,360 L-18,360 L-18,359 L-17,359 L-17,358 L-19,358 L-19,346 L-18,346 L-18,345 L-17,345 L-17,343 L-16,343 L-16,342 L-15,342 L-15,341 L-16,341 L-16,340 L-15,340 L-15,339 L-14,339 L-14,340 L-13,340 L-13,339 L-12,339 L-12,338 L-13,338 L-13,337 L-12,337 L-12,336 L-13,336 L-13,335 L-14,335 L-14,334 L-13,334 L-13,333 L-14,333 L-14,331 L-15,331 L-15,329 L-16,329 L-16,328 L-17,328 L-17,326 L-18,326 L-18,324 L-19,324 L-19,322 L-20,322 L-20,320 L-21,320 L-21,319 L-22,319 L-22,318 L-23,318 L-23,319 L-25,319 L-25,318 L-26,318 L-26,315 L-30,315 L-30,316 L-32,316 L-32,315 L-35,315 L-35,314 L-37,314 L-37,313 L-40,313 L-40,312 L-42,312 L-42,310 L-44,310 L-44,309 L-46,309 L-46,310 L-48,310 L-48,309 L-49,309 L-49,308 L-51,308 L-51,307 L-52,307 L-52,306 L-54,306 L-54,305 L-56,305 L-56,304 L-58,304 L-58,303 L-59,303 L-59,302 L-58,302 L-58,301 L-59,301 L-59,300 L-60,300 L-60,299 L-61,299 L-61,298 L-62,298 L-62,299 L-64,299 L-64,298 L-65,298 L-65,297 L-66,297 L-66,295 L-65,295 L-65,294 L-66,294 L-66,293 L-67,293 L-67,294 L-69,294 L-69,293 L-70,293 L-70,292 L-71,292 L-71,290 L-70,290 L-70,289 L-71,289 L-71,287 L-72,287 L-72,286 L-73,286 L-73,285 L-74,285 L-74,283 L-75,283 L-75,282 L-76,282 L-76,280 L-77,280 L-77,278 L-78,278 L-78,276 L-79,276 L-79,274 L-80,274 L-80,272 L-81,272 L-81,269 L-82,269 L-82,265 L-83,265 L-83,262 L-84,262 L-84,259 L-85,259 L-85,255 L-86,255 L-86,259 L-87,259 L-87,264 L-88,264 L-88,268 L-89,268 L-89,271 L-90,271 L-90,275 L-89,275 L-89,276 L-87,276 L-87,278 L-86,278 L-86,280 L-87,280 L-87,284 L-88,284 L-88,286 L-89,286 L-89,289 L-90,289 L-90,291 L-91,291 L-91,296 L-90,296 L-90,297 L-89,297 L-89,298 L-88,298 L-88,299 L-87,299 L-87,300 L-86,300 L-86,301 L-85,301 L-85,302 L-84,302 L-84,303 L-83,303 L-83,304 L-82,304 L-82,305 L-81,305 L-81,308 L-80,308 L-80,312 L-81,312 L-81,315 L-82,315 L-82,316 L-83,316 L-83,317 L-84,317 L-84,318 L-85,318 L-85,319 L-84,319 L-84,320 L-85,320 L-85,321 L-87,321 L-87,320 L-89,320 L-89,321 L-90,321 L-90,326 L-91,326 L-91,320 L-92,320 L-92,328 L-93,328 L-93,330 L-94,330 L-94,331 L-95,331 L-95,332 L-96,332 L-96,333 L-97,333 L-97,334 L-98,334 L-98,335 L-97,335 L-97,336 L-98,336 L-98,337 L-100,337 L-100,336 L-107,336 L-107,337 L-110,337 L-110,336 L-112,336 L-112,335 L-113,335 L-113,334 L-112,334 L-112,333 L-113,333 L-113,332 L-114,332 L-114,331 L-115,331 L-115,330 L-117,330 L-117,329 L-116,329 L-116,328 L-117,328 L-117,327 L-118,327 L-118,325 L-119,325 L-119,323 L-120,323 L-120,322 L-121,322 L-121,321 L-124,321 L-124,320 L-123,320 L-123,319 L-124,319 L-124,317 L-125,317 L-125,316 L-126,316 L-126,303 L-125,303 L-125,300 L-124,300 L-124,297 L-125,297 L-125,295 L-124,295 L-124,294 L-123,294 L-123,295 L-122,295 L-122,294 L-121,294 L-121,293 L-122,293 L-122,291 L-121,291 L-121,292 L-120,292 L-120,291 L-119,291 L-119,289 L-118,289 L-118,277 L-117,277 L-117,275 L-118,275 L-118,273 L-117,273 L-117,272 L-118,272 L-118,271 L-117,271 L-117,270 L-112,270 L-112,266 L-111,266 L-111,270 L-110,270 L-110,264 L-109,264 L-109,259 L-108,259 L-108,254 L-109,254 L-109,249 L-108,249 L-108,245 L-107,245 L-107,241 L-106,241 L-106,245 L-105,245 L-105,240 L-104,240 L-104,233 L-103,233 L-103,228 L-102,228 L-102,223 L-101,223 L-101,218 L-102,218 L-102,213 L-101,213 L-101,209 L-100,209 L-100,213 L-99,213 L-99,205 L-98,205 L-98,198 L-97,198 L-97,191 L-96,191 L-96,183 L-97,183 L-97,190 L-98,190 L-98,181 L-97,181 L-97,174 L-96,174 L-96,163 L-95,163 L-95,162 L-96,162 L-96,161 L-95,161 L-95,160 L-96,160 L-96,158 L-97,158 L-97,156 L-96,156 L-96,140 L-95,140 L-95,139 L-96,139 L-96,138 L-95,138 L-95,137 L-94,137 L-94,139 L-93,139 L-93,121 L-92,121 L-92,120 L-93,120 L-93,118 L-92,118 L-92,106 L-91,106 L-91,99 L-92,99 L-92,98 L-93,98 L-93,94 L-92,94 L-92,91 L-91,91 L-91,90 L-92,90 L-92,86 L-91,86 L-91,85 L-92,85 L-92,81 L-91,81 L-91,78 L-90,78 L-90,81 L-89,81 L-89,78 L-88,78 L-88,76 L-87,76 L-87,75 L-88,75 L-88,74 L-87,74 L-87,70 L-86,70 L-86,68 L-85,68 L-85,70 L-84,70 L-84,68 L-83,68 L-83,67 L-82,67 L-82,65 L-81,65 L-81,63 L-80,63 L-80,61 L-79,61 L-79,59 L-78,59 L-78,57 L-77,57 L-77,55 L-76,55 L-76,53 L-75,53 L-75,52 L-74,52 L-74,50 L-73,50 L-73,49 L-72,49 L-72,48 L-71,48 L-71,46 L-70,46 L-70,44 L-69,44 L-69,43 L-68,43 L-68,42 L-67,42 L-67,41 L-66,41 L-66,40 L-65,40 L-65,38 L-64,38 L-64,37 L-63,37 L-63,36 L-62,36 L-62,35 L-61,35 L-61,34 L-60,34 L-60,33 L-59,33 L-59,32 L-58,32 L-58,31 L-57,31 L-57,30 L-58,30 L-58,29 L-57,29 L-57,28 L-56,28 L-56,27 L-55,27 L-55,26 L-53,26 L-53,27 L-52,27 L-52,26 L-51,26 L-51,25 L-50,25 L-50,24 L-51,24 L-51,23 L-50,23 L-50,22 L-48,22 L-48,21 L-46,21 L-46,22 L-45,22 L-45,21 L-44,21 L-44,20 L-45,20 L-45,19 L-44,19 L-44,18 L-43,18 L-43,17 L-41,17 L-41,16 L-39,16 L-39,17 L-37,17 L-37,16 L-35,16 L-35,15 L-34,15 L-34,14 L-35,14 L-35,13 L-34,13 L-34,12 L-32,12 L-32,11 L-30,11 L-30,12 L-28,12 L-28,11 L-25,11 L-25,8 L-23,8 L-23,7 L-21,7 L-21,6 L-18,6 L-18,7 L-15,7 L-15,6 L-13,6 L-13,5 L-9,5 L-9,4 L-10,4 L-10,3 L-8,3 L-8,2 L-5,2 L-5,1 L0,1 Z M1,1 L1,2 L5,2 L5,1 Z M-4,2 L-4,3 L-2,3 L-2,2 Z M-1,2 L-1,3 L0,3 L0,2 Z M64,2 L64,3 L67,3 L67,2 Z M-8,3 L-8,4 L-4,4 L-4,3 Z M68,3 L68,4 L70,4 L70,3 Z M71,4 L71,5 L72,5 L72,4 Z M78,6 L78,7 L80,7 L80,6 Z M-20,7 L-20,8 L-18,8 L-18,7 Z M81,7 L81,8 L83,8 L83,7 Z M-22,8 L-22,9 L-20,9 L-20,8 Z M-24,9 L-24,10 L-23,10 L-23,9 Z M91,11 L91,12 L92,12 L92,11 Z M-32,12 L-32,13 L-31,13 L-31,12 Z M93,12 L93,13 L94,13 L94,12 Z M-33,13 L-33,14 L-32,14 L-32,13 Z M-40,17 L-40,18 L-39,18 L-39,17 Z M102,17 L102,18 L103,18 L103,17 Z M-42,18 L-42,19 L-41,19 L-41,18 Z M103,18 L103,19 L104,19 L104,18 Z M-43,19 L-43,20 L-42,20 L-42,19 Z M105,19 L105,20 L106,20 L106,19 Z M106,20 L106,21 L107,21 L107,20 Z M108,21 L108,22 L109,22 L109,21 Z M-48,22 L-48,23 L-47,23 L-47,22 Z M109,22 L109,23 L110,23 L110,22 Z M-49,23 L-49,24 L-48,24 L-48,23 Z M-54,27 L-54,28 L-53,28 L-53,27 Z M127,39 L127,40 L128,40 L128,39 Z M128,40 L128,41 L129,41 L129,40 Z M-86,71 L-86,75 L-85,75 L-85,71 Z M-91,82 L-91,84 L-90,84 L-90,82 Z M-90,84 L-90,87 L-89,87 L-89,84 Z M-91,87 L-91,90 L-90,90 L-90,87 Z M-94,162 L-94,163 L-93,163 L-93,162 Z M-95,163 L-95,174 L-94,174 L-94,163 Z M155,163 L155,164 L156,164 L156,163 Z M156,164 L156,172 L157,172 L157,164 Z M157,172 L157,179 L158,179 L158,172 Z M-96,175 L-96,183 L-95,183 L-95,175 Z M160,202 L160,209 L161,209 L161,202 Z M161,210 L161,216 L162,216 L162,210 Z M-101,214 L-101,218 L-100,218 L-100,214 Z M162,216 L162,223 L163,223 L163,216 Z M-107,246 L-107,250 L-106,250 L-106,246 Z M-108,250 L-108,254 L-107,254 L-107,250 Z M148,270 L148,273 L149,273 L149,270 Z M-116,271 L-116,272 L-113,272 L-113,271 Z M-112,271 L-112,272 L-111,272 L-111,271 Z M149,273 L149,277 L150,277 L150,273 Z M-91,275 L-91,276 L-90,276 L-90,275 Z M150,277 L150,278 L151,278 L151,277 Z M147,278 L147,279 L148,279 L148,278 Z M-69,291 L-69,292 L-68,292 L-68,291 Z M-68,292 L-68,293 L-67,293 L-67,292 Z M-124,296 L-124,297 L-123,297 L-123,296 Z M-63,297 L-63,298 L-62,298 L-62,297 Z M118,302 L118,303 L119,303 L119,302 Z M-56,303 L-56,304 L-55,304 L-55,303 Z M117,303 L117,304 L118,304 L118,303 Z M-54,304 L-54,305 L-53,305 L-53,304 Z M-52,305 L-52,306 L-51,306 L-51,305 Z M-50,306 L-50,307 L-49,307 L-49,306 Z M-49,307 L-49,308 L-48,308 L-48,307 Z M111,307 L111,308 L112,308 L112,307 Z M-47,308 L-47,309 L-46,309 L-46,308 Z M109,308 L109,309 L110,309 L110,308 Z M108,309 L108,310 L109,310 L109,309 Z M-41,310 L-41,311 L-40,311 L-40,310 Z M104,310 L104,311 L105,311 L105,310 Z M-39,311 L-39,312 L-37,312 L-37,311 Z M102,311 L102,312 L103,312 L103,311 Z M-36,312 L-36,313 L-35,313 L-35,312 Z M99,312 L99,313 L100,313 L100,312 Z M-34,313 L-34,314 L-32,314 L-32,313 Z M97,313 L97,314 L98,314 L98,313 Z M-31,314 L-31,315 L-30,315 L-30,314 Z M-25,317 L-25,318 L-24,318 L-24,317 Z M84,317 L84,318 L85,318 L85,317 Z M28,318 L28,330 L29,330 L29,333 L30,333 L30,338 L31,338 L31,331 L30,331 L30,329 L29,329 L29,319 L30,319 L30,318 Z M82,318 L82,319 L83,319 L83,318 Z M-87,319 L-87,320 L-86,320 L-86,319 Z M30,321 L30,329 L31,329 L31,321 Z M151,322 L151,324 L152,324 L152,322 Z M149,323 L149,324 L150,324 L150,323 Z M77,324 L77,325 L78,325 L78,324 Z M178,327 L178,328 L179,328 L179,327 Z M-111,334 L-111,335 L-110,335 L-110,334 Z M-12,334 L-12,335 L-10,335 L-10,334 Z M-9,334 L-9,335 L-8,335 L-8,334 Z M70,334 L70,335 L71,335 L71,334 Z M-109,335 L-109,336 L-108,336 L-108,335 Z M-100,335 L-100,336 L-99,336 L-99,335 Z M-7,335 L-7,336 L-6,336 L-6,335 Z M66,335 L66,337 L67,337 L67,336 L70,336 L70,335 Z M-11,336 L-11,338 L-10,338 L-10,336 Z M-9,336 L-9,337 L-8,337 L-8,336 Z M155,336 L155,337 L156,337 L156,336 Z M68,337 L68,338 L69,338 L69,337 Z M169,337 L169,338 L170,338 L170,337 Z M70,338 L70,339 L71,339 L71,338 Z M26,352 L26,353 L27,353 L27,352 Z M32,352 L32,353 L33,353 L33,352 Z M34,353 L34,354 L38,354 L38,353 Z M39,353 L39,354 L40,354 L40,353 Z M9,358 L9,359 L12,359 L12,358 Z M45,358 L45,359 L47,359 L47,358 Z M48,358 L48,359 L49,359 L49,358 Z " fill="#D0B976" transform="translate(126,0)"/>
<path d="M0,0 L1,0 L1,22 L2,22 L2,23 L1,23 L1,24 L2,24 L2,25 L3,25 L3,44 L2,44 L2,45 L3,45 L3,54 L4,54 L4,62 L3,62 L3,72 L4,72 L4,84 L5,84 L5,76 L6,76 L6,84 L7,84 L7,92 L8,92 L8,98 L9,98 L9,106 L8,106 L8,113 L9,113 L9,122 L10,122 L10,128 L11,128 L11,133 L12,133 L12,138 L13,138 L13,143 L14,143 L14,148 L15,148 L15,155 L16,155 L16,158 L17,158 L17,155 L18,155 L18,156 L22,156 L22,157 L18,157 L18,158 L22,158 L22,159 L23,159 L23,161 L22,161 L22,162 L23,162 L23,174 L24,174 L24,177 L25,177 L25,178 L26,178 L26,180 L27,180 L27,182 L28,182 L28,183 L29,183 L29,186 L30,186 L30,190 L31,190 L31,201 L30,201 L30,203 L29,203 L29,204 L28,204 L28,205 L27,205 L27,206 L26,206 L26,207 L25,207 L25,208 L24,208 L24,210 L25,210 L25,212 L24,212 L24,213 L23,213 L23,212 L22,212 L22,213 L21,213 L21,215 L20,215 L20,216 L19,216 L19,217 L18,217 L18,218 L17,218 L17,219 L16,219 L16,220 L17,220 L17,221 L16,221 L16,222 L14,222 L14,221 L3,221 L3,220 L2,220 L2,222 L1,222 L1,221 L0,221 L0,220 L-1,220 L-1,219 L-2,219 L-2,218 L-1,218 L-1,217 L-2,217 L-2,215 L-3,215 L-3,211 L-4,211 L-4,207 L-5,207 L-5,211 L-6,211 L-6,208 L-7,208 L-7,207 L-9,207 L-9,206 L-7,206 L-7,205 L-9,205 L-9,204 L-10,204 L-10,205 L-12,205 L-12,204 L-11,204 L-11,203 L-12,203 L-12,202 L-13,202 L-13,201 L-14,201 L-14,199 L-15,199 L-15,191 L-14,191 L-14,190 L-13,190 L-13,189 L-14,189 L-14,187 L-12,187 L-12,188 L-11,188 L-11,187 L-10,187 L-10,186 L-9,186 L-9,185 L-8,185 L-8,184 L-7,184 L-7,183 L-6,183 L-6,182 L-5,182 L-5,181 L-4,181 L-4,177 L-5,177 L-5,175 L-6,175 L-6,172 L-7,172 L-7,170 L-8,170 L-8,166 L-9,166 L-9,165 L-10,165 L-10,163 L-9,163 L-9,162 L-10,162 L-10,161 L-9,161 L-9,160 L-7,160 L-7,157 L-8,157 L-8,153 L-7,153 L-7,149 L-8,149 L-8,143 L-9,143 L-9,141 L-10,141 L-10,143 L-11,143 L-11,146 L-12,146 L-12,149 L-13,149 L-13,153 L-14,153 L-14,155 L-15,155 L-15,158 L-16,158 L-16,160 L-17,160 L-17,162 L-18,162 L-18,164 L-19,164 L-19,166 L-20,166 L-20,168 L-21,168 L-21,169 L-22,169 L-22,170 L-23,170 L-23,172 L-24,172 L-24,173 L-25,173 L-25,174 L-24,174 L-24,176 L-25,176 L-25,175 L-26,175 L-26,176 L-27,176 L-27,177 L-28,177 L-28,178 L-29,178 L-29,179 L-30,179 L-30,180 L-31,180 L-31,181 L-32,181 L-32,182 L-33,182 L-33,183 L-34,183 L-34,184 L-33,184 L-33,185 L-34,185 L-34,186 L-35,186 L-35,187 L-36,187 L-36,188 L-39,188 L-39,187 L-40,187 L-40,188 L-41,188 L-41,189 L-40,189 L-40,190 L-41,190 L-41,191 L-43,191 L-43,192 L-44,192 L-44,193 L-46,193 L-46,194 L-48,194 L-48,192 L-49,192 L-49,194 L-50,194 L-50,195 L-51,195 L-51,196 L-53,196 L-53,197 L-56,197 L-56,198 L-59,198 L-59,197 L-62,197 L-62,198 L-66,198 L-66,199 L-69,199 L-69,200 L-67,200 L-67,201 L-69,201 L-69,202 L-71,202 L-71,203 L-73,203 L-73,202 L-74,202 L-74,203 L-75,203 L-75,204 L-76,204 L-76,205 L-77,205 L-77,207 L-76,207 L-76,209 L-77,209 L-77,211 L-78,211 L-78,209 L-79,209 L-79,211 L-80,211 L-80,213 L-81,213 L-81,215 L-82,215 L-82,217 L-83,217 L-83,219 L-85,219 L-85,220 L-84,220 L-84,221 L-82,221 L-82,222 L-81,222 L-81,223 L-82,223 L-82,224 L-81,224 L-81,225 L-80,225 L-80,226 L-78,226 L-78,227 L-79,227 L-79,228 L-78,228 L-78,231 L-77,231 L-77,234 L-78,234 L-78,237 L-77,237 L-77,240 L-78,240 L-78,242 L-80,242 L-80,243 L-101,243 L-101,242 L-106,242 L-106,243 L-110,243 L-110,242 L-112,242 L-112,241 L-113,241 L-113,240 L-114,240 L-114,237 L-115,237 L-115,238 L-122,238 L-122,237 L-124,237 L-124,236 L-125,236 L-125,235 L-124,235 L-124,234 L-125,234 L-125,222 L-126,222 L-126,216 L-127,216 L-127,223 L-126,223 L-126,235 L-127,235 L-127,238 L-128,238 L-128,237 L-129,237 L-129,238 L-131,238 L-131,236 L-134,236 L-134,237 L-135,237 L-135,238 L-136,238 L-136,237 L-137,237 L-137,238 L-138,238 L-138,239 L-137,239 L-137,240 L-138,240 L-138,241 L-140,241 L-140,238 L-141,238 L-141,240 L-142,240 L-142,241 L-141,241 L-141,242 L-143,242 L-143,243 L-147,243 L-147,242 L-152,242 L-152,243 L-155,243 L-155,242 L-158,242 L-158,243 L-169,243 L-169,242 L-171,242 L-171,243 L-173,243 L-173,242 L-172,242 L-172,241 L-174,241 L-174,229 L-173,229 L-173,228 L-172,228 L-172,226 L-171,226 L-171,225 L-170,225 L-170,224 L-171,224 L-171,223 L-170,223 L-170,222 L-169,222 L-169,223 L-168,223 L-168,222 L-167,222 L-167,221 L-168,221 L-168,220 L-167,220 L-167,219 L-168,219 L-168,218 L-169,218 L-169,217 L-168,217 L-168,216 L-169,216 L-169,214 L-170,214 L-170,212 L-171,212 L-171,211 L-172,211 L-172,209 L-173,209 L-173,207 L-174,207 L-174,205 L-175,205 L-175,203 L-176,203 L-176,202 L-177,202 L-177,201 L-178,201 L-178,202 L-180,202 L-180,201 L-181,201 L-181,198 L-185,198 L-185,199 L-187,199 L-187,198 L-190,198 L-190,197 L-192,197 L-192,196 L-195,196 L-195,195 L-197,195 L-197,193 L-199,193 L-199,192 L-201,192 L-201,193 L-203,193 L-203,192 L-204,192 L-204,191 L-206,191 L-206,190 L-207,190 L-207,189 L-209,189 L-209,188 L-211,188 L-211,187 L-213,187 L-213,186 L-214,186 L-214,185 L-213,185 L-213,184 L-214,184 L-214,183 L-215,183 L-215,182 L-216,182 L-216,181 L-217,181 L-217,182 L-219,182 L-219,181 L-220,181 L-220,180 L-221,180 L-221,178 L-220,178 L-220,177 L-221,177 L-221,176 L-222,176 L-222,177 L-224,177 L-224,176 L-225,176 L-225,175 L-226,175 L-226,173 L-225,173 L-225,172 L-226,172 L-226,170 L-227,170 L-227,169 L-228,169 L-228,168 L-229,168 L-229,166 L-230,166 L-230,165 L-231,165 L-231,163 L-232,163 L-232,161 L-233,161 L-233,159 L-234,159 L-234,157 L-235,157 L-235,155 L-236,155 L-236,152 L-237,152 L-237,148 L-238,148 L-238,145 L-239,145 L-239,142 L-240,142 L-240,138 L-241,138 L-241,142 L-242,142 L-242,147 L-243,147 L-243,151 L-244,151 L-244,154 L-245,154 L-245,158 L-244,158 L-244,159 L-242,159 L-242,161 L-241,161 L-241,163 L-242,163 L-242,167 L-243,167 L-243,169 L-244,169 L-244,172 L-245,172 L-245,174 L-246,174 L-246,179 L-245,179 L-245,180 L-244,180 L-244,181 L-243,181 L-243,182 L-242,182 L-242,183 L-241,183 L-241,184 L-240,184 L-240,185 L-239,185 L-239,186 L-238,186 L-238,187 L-237,187 L-237,188 L-236,188 L-236,191 L-235,191 L-235,195 L-236,195 L-236,198 L-237,198 L-237,199 L-238,199 L-238,200 L-239,200 L-239,201 L-240,201 L-240,202 L-239,202 L-239,203 L-240,203 L-240,204 L-242,204 L-242,203 L-244,203 L-244,204 L-245,204 L-245,209 L-246,209 L-246,203 L-247,203 L-247,211 L-248,211 L-248,213 L-249,213 L-249,214 L-250,214 L-250,215 L-251,215 L-251,216 L-252,216 L-252,217 L-253,217 L-253,218 L-252,218 L-252,219 L-253,219 L-253,220 L-255,220 L-255,219 L-262,219 L-262,220 L-265,220 L-265,219 L-267,219 L-267,218 L-268,218 L-268,217 L-267,217 L-267,216 L-268,216 L-268,215 L-269,215 L-269,214 L-270,214 L-270,213 L-272,213 L-272,212 L-271,212 L-271,211 L-272,211 L-272,210 L-273,210 L-273,208 L-274,208 L-274,206 L-275,206 L-275,205 L-276,205 L-276,204 L-279,204 L-279,203 L-278,203 L-278,202 L-279,202 L-279,200 L-280,200 L-280,199 L-281,199 L-281,186 L-280,186 L-280,183 L-279,183 L-279,180 L-280,180 L-280,178 L-279,178 L-279,177 L-278,177 L-278,178 L-277,178 L-277,177 L-276,177 L-276,176 L-277,176 L-277,174 L-276,174 L-276,175 L-275,175 L-275,174 L-274,174 L-274,172 L-273,172 L-273,160 L-272,160 L-272,158 L-273,158 L-273,156 L-272,156 L-272,155 L-273,155 L-273,154 L-272,154 L-272,153 L-267,153 L-267,149 L-266,149 L-266,153 L-265,153 L-265,147 L-264,147 L-264,142 L-263,142 L-263,137 L-264,137 L-264,132 L-263,132 L-263,128 L-262,128 L-262,124 L-261,124 L-261,128 L-260,128 L-260,123 L-259,123 L-259,116 L-258,116 L-258,111 L-257,111 L-257,106 L-256,106 L-256,101 L-257,101 L-257,96 L-256,96 L-256,92 L-255,92 L-255,96 L-254,96 L-254,88 L-253,88 L-253,81 L-252,81 L-252,74 L-251,74 L-251,66 L-252,66 L-252,73 L-253,73 L-253,64 L-252,64 L-252,57 L-251,57 L-251,46 L-250,46 L-250,45 L-251,45 L-251,44 L-250,44 L-250,43 L-251,43 L-251,41 L-252,41 L-252,39 L-251,39 L-251,23 L-250,23 L-250,22 L-251,22 L-251,21 L-250,21 L-250,20 L-249,20 L-249,22 L-248,22 L-248,23 L-247,23 L-247,24 L-245,24 L-245,25 L-243,25 L-243,26 L-242,26 L-242,27 L-241,27 L-241,28 L-239,28 L-239,29 L-238,29 L-238,30 L-237,30 L-237,31 L-236,31 L-236,32 L-235,32 L-235,33 L-234,33 L-234,34 L-233,34 L-233,35 L-232,35 L-232,36 L-231,36 L-231,37 L-230,37 L-230,38 L-229,38 L-229,39 L-228,39 L-228,40 L-227,40 L-227,41 L-226,41 L-226,42 L-225,42 L-225,43 L-224,43 L-224,44 L-223,44 L-223,45 L-222,45 L-222,46 L-221,46 L-221,47 L-220,47 L-220,49 L-219,49 L-219,50 L-218,50 L-218,51 L-217,51 L-217,52 L-216,52 L-216,54 L-215,54 L-215,55 L-213,55 L-213,56 L-212,56 L-212,58 L-211,58 L-211,59 L-210,59 L-210,60 L-209,60 L-209,61 L-208,61 L-208,63 L-207,63 L-207,65 L-205,65 L-205,67 L-204,67 L-204,68 L-203,68 L-203,70 L-202,70 L-202,71 L-201,71 L-201,73 L-199,73 L-199,75 L-198,75 L-198,76 L-197,76 L-197,81 L-196,81 L-196,83 L-194,83 L-194,84 L-193,84 L-193,86 L-192,86 L-192,87 L-186,87 L-186,88 L-181,88 L-181,90 L-176,90 L-176,91 L-168,91 L-168,92 L-164,92 L-164,94 L-158,94 L-158,95 L-155,95 L-155,96 L-153,96 L-153,95 L-152,95 L-152,96 L-148,96 L-148,97 L-146,97 L-146,96 L-145,96 L-145,97 L-137,97 L-137,96 L-130,96 L-130,97 L-121,97 L-121,98 L-118,98 L-118,97 L-117,97 L-117,98 L-115,98 L-115,97 L-114,97 L-114,98 L-112,98 L-112,97 L-110,97 L-110,98 L-109,98 L-109,97 L-106,97 L-106,96 L-103,96 L-103,97 L-102,97 L-102,96 L-99,96 L-99,97 L-98,97 L-98,95 L-92,95 L-92,94 L-85,94 L-85,93 L-81,93 L-81,95 L-80,95 L-80,96 L-81,96 L-81,97 L-79,97 L-79,93 L-78,93 L-78,94 L-77,94 L-77,92 L-75,92 L-75,93 L-74,93 L-74,92 L-72,92 L-72,94 L-73,94 L-73,95 L-71,95 L-71,91 L-69,91 L-69,90 L-67,90 L-67,92 L-66,92 L-66,91 L-64,91 L-64,93 L-65,93 L-65,94 L-63,94 L-63,93 L-62,93 L-62,92 L-61,92 L-61,89 L-59,89 L-59,86 L-58,86 L-58,84 L-57,84 L-57,82 L-56,82 L-56,81 L-55,81 L-55,80 L-54,80 L-54,78 L-53,78 L-53,76 L-52,76 L-52,75 L-51,75 L-51,73 L-50,73 L-50,72 L-49,72 L-49,70 L-48,70 L-48,69 L-47,69 L-47,68 L-46,68 L-46,66 L-45,66 L-45,64 L-44,64 L-44,63 L-43,63 L-43,62 L-42,62 L-42,61 L-41,61 L-41,59 L-40,59 L-40,57 L-39,57 L-39,56 L-38,56 L-38,55 L-37,55 L-37,54 L-36,54 L-36,53 L-35,53 L-35,52 L-34,52 L-34,51 L-33,51 L-33,49 L-32,49 L-32,48 L-31,48 L-31,47 L-30,47 L-30,46 L-29,46 L-29,45 L-28,45 L-28,44 L-27,44 L-27,43 L-26,43 L-26,42 L-25,42 L-25,41 L-24,41 L-24,40 L-22,40 L-22,39 L-21,39 L-21,38 L-20,38 L-20,37 L-19,37 L-19,36 L-18,36 L-18,35 L-16,35 L-16,34 L-15,34 L-15,33 L-14,33 L-14,32 L-13,32 L-13,31 L-11,31 L-11,30 L-9,30 L-9,29 L-8,29 L-8,28 L-7,28 L-7,27 L-5,27 L-5,26 L-3,26 L-3,25 L-1,25 L-1,24 L0,24 Z M-249,45 L-249,46 L-248,46 L-248,45 Z M-250,46 L-250,57 L-249,57 L-249,46 Z M0,46 L0,47 L1,47 L1,46 Z M1,47 L1,55 L2,55 L2,47 Z M2,55 L2,62 L3,62 L3,55 Z M-251,58 L-251,66 L-250,66 L-250,58 Z M5,85 L5,92 L6,92 L6,85 Z M6,93 L6,99 L7,99 L7,93 Z M-256,97 L-256,101 L-255,101 L-255,97 Z M7,99 L7,106 L8,106 L8,99 Z M-262,129 L-262,133 L-261,133 L-261,129 Z M-263,133 L-263,137 L-262,137 L-262,133 Z M-7,153 L-7,156 L-6,156 L-6,153 Z M-271,154 L-271,155 L-268,155 L-268,154 Z M-267,154 L-267,155 L-266,155 L-266,154 Z M-6,156 L-6,160 L-5,160 L-5,156 Z M-246,158 L-246,159 L-245,159 L-245,158 Z M-5,160 L-5,161 L-4,161 L-4,160 Z M-8,161 L-8,162 L-7,162 L-7,161 Z M-224,174 L-224,175 L-223,175 L-223,174 Z M-223,175 L-223,176 L-222,176 L-222,175 Z M-279,179 L-279,180 L-278,180 L-278,179 Z M-218,180 L-218,181 L-217,181 L-217,180 Z M-37,185 L-37,186 L-36,186 L-36,185 Z M-211,186 L-211,187 L-210,187 L-210,186 Z M-38,186 L-38,187 L-37,187 L-37,186 Z M-209,187 L-209,188 L-208,188 L-208,187 Z M-207,188 L-207,189 L-206,189 L-206,188 Z M-205,189 L-205,190 L-204,190 L-204,189 Z M-204,190 L-204,191 L-203,191 L-203,190 Z M-44,190 L-44,191 L-43,191 L-43,190 Z M-202,191 L-202,192 L-201,192 L-201,191 Z M-46,191 L-46,192 L-45,192 L-45,191 Z M-47,192 L-47,193 L-46,193 L-46,192 Z M-196,193 L-196,194 L-195,194 L-195,193 Z M-51,193 L-51,194 L-50,194 L-50,193 Z M-194,194 L-194,195 L-192,195 L-192,194 Z M-53,194 L-53,195 L-52,195 L-52,194 Z M-191,195 L-191,196 L-190,196 L-190,195 Z M-56,195 L-56,196 L-55,196 L-55,195 Z M-189,196 L-189,197 L-187,197 L-187,196 Z M-58,196 L-58,197 L-57,197 L-57,196 Z M-186,197 L-186,198 L-185,198 L-185,197 Z M-180,200 L-180,201 L-179,201 L-179,200 Z M-71,200 L-71,201 L-70,201 L-70,200 Z M-127,201 L-127,213 L-126,213 L-126,216 L-125,216 L-125,221 L-124,221 L-124,214 L-125,214 L-125,212 L-126,212 L-126,202 L-125,202 L-125,201 Z M-73,201 L-73,202 L-72,202 L-72,201 Z M-242,202 L-242,203 L-241,203 L-241,202 Z M-125,204 L-125,212 L-124,212 L-124,204 Z M-4,205 L-4,207 L-3,207 L-3,205 Z M-6,206 L-6,207 L-5,207 L-5,206 Z M-78,207 L-78,208 L-77,208 L-77,207 Z M23,210 L23,211 L24,211 L24,210 Z M-266,217 L-266,218 L-265,218 L-265,217 Z M-167,217 L-167,218 L-165,218 L-165,217 Z M-164,217 L-164,218 L-163,218 L-163,217 Z M-85,217 L-85,218 L-84,218 L-84,217 Z M-264,218 L-264,219 L-263,219 L-263,218 Z M-255,218 L-255,219 L-254,219 L-254,218 Z M-162,218 L-162,219 L-161,219 L-161,218 Z M-89,218 L-89,220 L-88,220 L-88,219 L-85,219 L-85,218 Z M-166,219 L-166,221 L-165,221 L-165,219 Z M-164,219 L-164,220 L-163,220 L-163,219 Z M0,219 L0,220 L1,220 L1,219 Z M-87,220 L-87,221 L-86,221 L-86,220 Z M14,220 L14,221 L15,221 L15,220 Z M-85,221 L-85,222 L-84,222 L-84,221 Z M-129,235 L-129,236 L-128,236 L-128,235 Z M-123,235 L-123,236 L-122,236 L-122,235 Z M-121,236 L-121,237 L-117,237 L-117,236 Z M-116,236 L-116,237 L-115,237 L-115,236 Z M-146,241 L-146,242 L-143,242 L-143,241 Z M-110,241 L-110,242 L-108,242 L-108,241 Z M-107,241 L-107,242 L-106,242 L-106,241 Z " fill="#67839A" transform="translate(281,117)"/>
<path d="M0,0 L1,0 L1,2 L2,2 L2,3 L3,3 L3,4 L5,4 L5,5 L7,5 L7,6 L8,6 L8,7 L9,7 L9,8 L11,8 L11,9 L12,9 L12,10 L13,10 L13,11 L14,11 L14,12 L15,12 L15,13 L16,13 L16,14 L17,14 L17,15 L18,15 L18,16 L19,16 L19,17 L20,17 L20,18 L21,18 L21,19 L22,19 L22,20 L23,20 L23,21 L24,21 L24,22 L25,22 L25,23 L26,23 L26,24 L27,24 L27,25 L28,25 L28,26 L29,26 L29,27 L30,27 L30,29 L31,29 L31,31 L30,31 L30,32 L32,32 L32,33 L33,33 L33,35 L34,35 L34,36 L35,36 L35,38 L37,38 L37,40 L38,40 L38,42 L40,42 L40,46 L41,46 L41,45 L42,45 L42,48 L43,48 L43,49 L46,49 L46,51 L47,51 L47,53 L48,53 L48,54 L50,54 L50,56 L51,56 L51,59 L50,59 L50,60 L52,60 L52,64 L51,64 L51,63 L49,63 L49,67 L50,67 L50,69 L51,69 L51,70 L52,70 L52,73 L54,73 L54,70 L56,70 L56,69 L58,69 L58,70 L59,70 L59,72 L60,72 L60,75 L62,75 L62,76 L61,76 L61,79 L62,79 L62,81 L63,81 L63,80 L64,80 L64,81 L65,81 L65,83 L64,83 L64,84 L65,84 L65,87 L61,87 L61,89 L60,89 L60,90 L57,90 L57,91 L56,91 L56,90 L54,90 L54,92 L55,92 L55,94 L54,94 L54,95 L53,95 L53,96 L55,96 L55,95 L57,95 L57,94 L58,94 L58,93 L61,93 L61,97 L62,97 L62,98 L61,98 L61,99 L62,99 L62,102 L64,102 L64,103 L65,103 L65,102 L66,102 L66,103 L67,103 L67,104 L66,104 L66,105 L69,105 L69,106 L70,106 L70,107 L71,107 L71,106 L72,106 L72,109 L71,109 L71,108 L70,108 L70,109 L69,109 L69,110 L70,110 L70,111 L66,111 L66,112 L68,112 L68,113 L69,113 L69,115 L70,115 L70,116 L71,116 L71,117 L69,117 L69,119 L68,119 L68,116 L67,116 L67,118 L65,118 L65,115 L62,115 L62,114 L61,114 L61,115 L60,115 L60,116 L63,116 L63,117 L62,117 L62,118 L59,118 L59,119 L58,119 L58,120 L57,120 L57,121 L55,121 L55,119 L54,119 L54,117 L53,117 L53,118 L52,118 L52,117 L51,117 L51,120 L52,120 L52,123 L51,123 L51,125 L52,125 L52,128 L51,128 L51,129 L53,129 L53,127 L54,127 L54,128 L55,128 L55,131 L54,131 L54,132 L53,132 L53,133 L51,133 L51,131 L50,131 L50,132 L49,132 L49,128 L48,128 L48,129 L47,129 L47,128 L45,128 L45,136 L44,136 L44,138 L43,138 L43,140 L42,140 L42,143 L40,143 L40,144 L39,144 L39,145 L35,145 L35,146 L28,146 L28,149 L29,149 L29,150 L30,150 L30,152 L31,152 L31,153 L32,153 L32,154 L33,154 L33,152 L34,152 L34,151 L33,151 L33,150 L32,150 L32,149 L35,149 L35,150 L37,150 L37,149 L40,149 L40,150 L41,150 L41,151 L45,151 L45,152 L43,152 L43,153 L44,153 L44,155 L43,155 L43,156 L45,156 L45,157 L44,157 L44,159 L45,159 L45,160 L47,160 L47,161 L54,161 L54,160 L57,160 L57,161 L60,161 L60,158 L61,158 L61,159 L62,159 L62,161 L61,161 L61,162 L60,162 L60,163 L62,163 L62,164 L65,164 L65,165 L68,165 L68,166 L70,166 L70,169 L71,169 L71,168 L73,168 L73,169 L77,169 L77,170 L79,170 L79,171 L80,171 L80,170 L81,170 L81,172 L85,172 L85,173 L86,173 L86,174 L87,174 L87,173 L90,173 L90,172 L91,172 L91,174 L92,174 L92,173 L93,173 L93,174 L97,174 L97,175 L103,175 L103,176 L104,176 L104,177 L109,177 L109,178 L110,178 L110,177 L112,177 L112,176 L119,176 L119,174 L120,174 L120,173 L122,173 L122,171 L124,171 L124,172 L125,172 L125,171 L131,171 L131,173 L132,173 L132,174 L134,174 L134,173 L136,173 L136,175 L138,175 L138,176 L140,176 L140,175 L142,175 L142,177 L146,177 L146,178 L156,178 L156,179 L173,179 L173,180 L172,180 L172,181 L167,181 L167,182 L162,182 L162,183 L161,183 L161,184 L154,184 L154,185 L153,185 L153,184 L150,184 L150,186 L147,186 L147,185 L143,185 L143,186 L142,186 L142,188 L141,188 L141,190 L142,190 L142,192 L141,192 L141,194 L142,194 L142,197 L160,197 L160,198 L161,198 L161,200 L162,200 L162,199 L165,199 L165,200 L166,200 L166,201 L168,201 L168,202 L169,202 L169,203 L168,203 L168,204 L169,204 L169,205 L170,205 L170,206 L172,206 L172,207 L171,207 L171,208 L172,208 L172,211 L173,211 L173,214 L172,214 L172,217 L173,217 L173,220 L172,220 L172,222 L170,222 L170,223 L149,223 L149,222 L144,222 L144,223 L140,223 L140,222 L138,222 L138,221 L137,221 L137,220 L136,220 L136,217 L135,217 L135,218 L128,218 L128,217 L126,217 L126,216 L125,216 L125,215 L126,215 L126,214 L125,214 L125,202 L124,202 L124,196 L123,196 L123,203 L124,203 L124,215 L123,215 L123,218 L122,218 L122,217 L121,217 L121,218 L119,218 L119,216 L116,216 L116,217 L115,217 L115,218 L114,218 L114,217 L113,217 L113,218 L112,218 L112,219 L113,219 L113,220 L112,220 L112,221 L110,221 L110,218 L109,218 L109,220 L108,220 L108,221 L109,221 L109,222 L107,222 L107,223 L103,223 L103,222 L98,222 L98,223 L95,223 L95,222 L92,222 L92,223 L81,223 L81,222 L79,222 L79,223 L77,223 L77,222 L78,222 L78,221 L76,221 L76,209 L77,209 L77,208 L78,208 L78,206 L79,206 L79,205 L80,205 L80,204 L79,204 L79,203 L80,203 L80,202 L81,202 L81,203 L82,203 L82,202 L83,202 L83,201 L82,201 L82,200 L83,200 L83,199 L82,199 L82,198 L81,198 L81,197 L82,197 L82,196 L81,196 L81,194 L80,194 L80,192 L79,192 L79,191 L78,191 L78,189 L77,189 L77,187 L76,187 L76,185 L75,185 L75,183 L74,183 L74,182 L73,182 L73,181 L72,181 L72,182 L70,182 L70,181 L69,181 L69,178 L65,178 L65,179 L63,179 L63,178 L60,178 L60,177 L58,177 L58,176 L55,176 L55,175 L53,175 L53,173 L51,173 L51,172 L49,172 L49,173 L47,173 L47,172 L46,172 L46,171 L44,171 L44,170 L43,170 L43,169 L41,169 L41,168 L39,168 L39,167 L37,167 L37,166 L36,166 L36,165 L37,165 L37,164 L36,164 L36,163 L35,163 L35,162 L34,162 L34,161 L33,161 L33,162 L31,162 L31,161 L30,161 L30,160 L29,160 L29,158 L30,158 L30,157 L29,157 L29,156 L28,156 L28,157 L26,157 L26,156 L25,156 L25,155 L24,155 L24,153 L25,153 L25,152 L24,152 L24,150 L23,150 L23,149 L22,149 L22,148 L21,148 L21,146 L20,146 L20,145 L19,145 L19,143 L18,143 L18,141 L17,141 L17,139 L16,139 L16,137 L15,137 L15,135 L14,135 L14,132 L13,132 L13,128 L12,128 L12,125 L11,125 L11,122 L10,122 L10,118 L9,118 L9,122 L8,122 L8,127 L7,127 L7,131 L6,131 L6,134 L5,134 L5,138 L6,138 L6,139 L8,139 L8,141 L9,141 L9,143 L8,143 L8,147 L7,147 L7,149 L6,149 L6,152 L5,152 L5,154 L4,154 L4,159 L5,159 L5,160 L6,160 L6,161 L7,161 L7,162 L8,162 L8,163 L9,163 L9,164 L10,164 L10,165 L11,165 L11,166 L12,166 L12,167 L13,167 L13,168 L14,168 L14,171 L15,171 L15,175 L14,175 L14,178 L13,178 L13,179 L12,179 L12,180 L11,180 L11,181 L10,181 L10,182 L11,182 L11,183 L10,183 L10,184 L8,184 L8,183 L6,183 L6,184 L5,184 L5,189 L4,189 L4,183 L3,183 L3,191 L2,191 L2,193 L1,193 L1,194 L0,194 L0,195 L-1,195 L-1,196 L-2,196 L-2,197 L-3,197 L-3,198 L-2,198 L-2,199 L-3,199 L-3,200 L-5,200 L-5,199 L-12,199 L-12,200 L-15,200 L-15,199 L-17,199 L-17,198 L-18,198 L-18,197 L-17,197 L-17,196 L-18,196 L-18,195 L-19,195 L-19,194 L-20,194 L-20,193 L-22,193 L-22,192 L-21,192 L-21,191 L-22,191 L-22,190 L-23,190 L-23,188 L-24,188 L-24,186 L-25,186 L-25,185 L-26,185 L-26,184 L-29,184 L-29,183 L-28,183 L-28,182 L-29,182 L-29,180 L-30,180 L-30,179 L-31,179 L-31,166 L-30,166 L-30,163 L-29,163 L-29,160 L-30,160 L-30,158 L-29,158 L-29,157 L-28,157 L-28,158 L-27,158 L-27,157 L-26,157 L-26,156 L-27,156 L-27,154 L-26,154 L-26,155 L-25,155 L-25,154 L-24,154 L-24,152 L-23,152 L-23,140 L-22,140 L-22,138 L-23,138 L-23,136 L-22,136 L-22,135 L-23,135 L-23,134 L-22,134 L-22,133 L-17,133 L-17,129 L-16,129 L-16,133 L-15,133 L-15,127 L-14,127 L-14,122 L-13,122 L-13,117 L-14,117 L-14,112 L-13,112 L-13,108 L-12,108 L-12,104 L-11,104 L-11,108 L-10,108 L-10,103 L-9,103 L-9,96 L-8,96 L-8,91 L-7,91 L-7,86 L-6,86 L-6,81 L-7,81 L-7,76 L-6,76 L-6,72 L-5,72 L-5,76 L-4,76 L-4,68 L-3,68 L-3,61 L-2,61 L-2,54 L-1,54 L-1,46 L-2,46 L-2,53 L-3,53 L-3,44 L-2,44 L-2,37 L-1,37 L-1,26 L0,26 L0,25 L-1,25 L-1,24 L0,24 L0,23 L-1,23 L-1,21 L-2,21 L-2,19 L-1,19 L-1,3 L0,3 L0,2 L-1,2 L-1,1 L0,1 Z M1,25 L1,26 L2,26 L2,25 Z M0,26 L0,37 L1,37 L1,26 Z M-1,38 L-1,46 L0,46 L0,38 Z M-6,77 L-6,81 L-5,81 L-5,77 Z M-12,109 L-12,113 L-11,113 L-11,109 Z M-13,113 L-13,117 L-12,117 L-12,113 Z M-21,134 L-21,135 L-18,135 L-18,134 Z M-17,134 L-17,135 L-16,135 L-16,134 Z M4,138 L4,139 L5,139 L5,138 Z M26,154 L26,155 L27,155 L27,154 Z M27,155 L27,156 L28,156 L28,155 Z M-29,159 L-29,160 L-28,160 L-28,159 Z M32,160 L32,161 L33,161 L33,160 Z M39,166 L39,167 L40,167 L40,166 Z M41,167 L41,168 L42,168 L42,167 Z M43,168 L43,169 L44,169 L44,168 Z M45,169 L45,170 L46,170 L46,169 Z M46,170 L46,171 L47,171 L47,170 Z M48,171 L48,172 L49,172 L49,171 Z M54,173 L54,174 L55,174 L55,173 Z M56,174 L56,175 L58,175 L58,174 Z M59,175 L59,176 L60,176 L60,175 Z M61,176 L61,177 L63,177 L63,176 Z M64,177 L64,178 L65,178 L65,177 Z M70,180 L70,181 L71,181 L71,180 Z M123,181 L123,193 L124,193 L124,196 L125,196 L125,201 L126,201 L126,194 L125,194 L125,192 L124,192 L124,182 L125,182 L125,181 Z M8,182 L8,183 L9,183 L9,182 Z M125,184 L125,192 L126,192 L126,184 Z M-16,197 L-16,198 L-15,198 L-15,197 Z M83,197 L83,198 L85,198 L85,197 Z M86,197 L86,198 L87,198 L87,197 Z M-14,198 L-14,199 L-13,199 L-13,198 Z M-5,198 L-5,199 L-4,199 L-4,198 Z M88,198 L88,199 L89,199 L89,198 Z M84,199 L84,201 L85,201 L85,199 Z M86,199 L86,200 L87,200 L87,199 Z M163,200 L163,201 L164,201 L164,200 Z M165,201 L165,202 L166,202 L166,201 Z M121,215 L121,216 L122,216 L122,215 Z M127,215 L127,216 L128,216 L128,215 Z M129,216 L129,217 L133,217 L133,216 Z M134,216 L134,217 L135,217 L135,216 Z M104,221 L104,222 L107,222 L107,221 Z M140,221 L140,222 L142,222 L142,221 Z M143,221 L143,222 L144,222 L144,221 Z " fill="#384855" transform="translate(31,137)"/>
<path d="M0,0 L3,0 L3,1 L4,1 L4,9 L5,9 L5,16 L6,16 L6,26 L7,26 L7,38 L8,38 L8,30 L9,30 L9,38 L10,38 L10,46 L11,46 L11,52 L12,52 L12,60 L11,60 L11,67 L12,67 L12,76 L13,76 L13,82 L14,82 L14,87 L15,87 L15,92 L16,92 L16,97 L17,97 L17,102 L18,102 L18,109 L19,109 L19,112 L20,112 L20,109 L21,109 L21,110 L25,110 L25,111 L21,111 L21,112 L25,112 L25,113 L26,113 L26,115 L25,115 L25,116 L26,116 L26,128 L27,128 L27,131 L28,131 L28,132 L29,132 L29,134 L30,134 L30,136 L31,136 L31,137 L32,137 L32,140 L33,140 L33,144 L34,144 L34,155 L33,155 L33,157 L32,157 L32,158 L31,158 L31,159 L30,159 L30,160 L29,160 L29,161 L28,161 L28,162 L27,162 L27,164 L28,164 L28,166 L27,166 L27,167 L26,167 L26,166 L25,166 L25,167 L24,167 L24,169 L23,169 L23,170 L22,170 L22,171 L21,171 L21,172 L20,172 L20,173 L19,173 L19,174 L20,174 L20,175 L19,175 L19,176 L17,176 L17,175 L6,175 L6,174 L5,174 L5,176 L4,176 L4,175 L3,175 L3,174 L2,174 L2,173 L1,173 L1,172 L2,172 L2,171 L1,171 L1,169 L0,169 L0,165 L-1,165 L-1,161 L-2,161 L-2,165 L-3,165 L-3,162 L-4,162 L-4,161 L-6,161 L-6,160 L-4,160 L-4,159 L-6,159 L-6,158 L-7,158 L-7,159 L-9,159 L-9,158 L-8,158 L-8,157 L-9,157 L-9,156 L-10,156 L-10,155 L-11,155 L-11,153 L-12,153 L-12,145 L-11,145 L-11,144 L-10,144 L-10,143 L-11,143 L-11,141 L-9,141 L-9,142 L-8,142 L-8,141 L-7,141 L-7,140 L-6,140 L-6,139 L-5,139 L-5,138 L-4,138 L-4,137 L-3,137 L-3,136 L-2,136 L-2,135 L-1,135 L-1,131 L-2,131 L-2,129 L-3,129 L-3,126 L-4,126 L-4,124 L-5,124 L-5,120 L-6,120 L-6,119 L-7,119 L-7,117 L-6,117 L-6,116 L-7,116 L-7,115 L-6,115 L-6,114 L-4,114 L-4,111 L-5,111 L-5,107 L-4,107 L-4,103 L-5,103 L-5,97 L-6,97 L-6,95 L-7,95 L-7,97 L-8,97 L-8,90 L-7,90 L-7,88 L-8,88 L-8,87 L-9,87 L-9,86 L-10,86 L-10,87 L-11,87 L-11,90 L-13,90 L-13,91 L-14,91 L-14,92 L-15,92 L-15,93 L-18,93 L-18,94 L-20,94 L-20,95 L-23,95 L-23,96 L-29,96 L-29,97 L-43,97 L-43,92 L-44,92 L-44,87 L-45,87 L-45,69 L-44,69 L-44,64 L-45,64 L-45,63 L-43,63 L-43,56 L-42,56 L-42,55 L-41,55 L-41,53 L-40,53 L-40,51 L-39,51 L-39,49 L-38,49 L-38,48 L-37,48 L-37,46 L-36,46 L-36,44 L-35,44 L-35,42 L-34,42 L-34,41 L-33,41 L-33,40 L-32,40 L-32,37 L-31,37 L-31,35 L-29,35 L-29,33 L-28,33 L-28,32 L-27,32 L-27,30 L-26,30 L-26,29 L-25,29 L-25,27 L-24,27 L-24,26 L-23,26 L-23,25 L-22,25 L-22,23 L-21,23 L-21,22 L-20,22 L-20,21 L-19,21 L-19,20 L-18,20 L-18,18 L-17,18 L-17,17 L-16,17 L-16,16 L-15,16 L-15,15 L-14,15 L-14,14 L-13,14 L-13,13 L-12,13 L-12,12 L-11,12 L-11,11 L-10,11 L-10,9 L-9,9 L-9,6 L-6,6 L-6,5 L-5,5 L-5,4 L-4,4 L-4,3 L-3,3 L-3,2 L-2,2 L-2,1 L0,1 Z M8,39 L8,46 L9,46 L9,39 Z M9,47 L9,53 L10,53 L10,47 Z M10,53 L10,60 L11,60 L11,53 Z M-4,107 L-4,110 L-3,110 L-3,107 Z M-3,110 L-3,114 L-2,114 L-2,110 Z M-2,114 L-2,115 L-1,115 L-1,114 Z M-5,115 L-5,116 L-4,116 L-4,115 Z M-1,159 L-1,161 L0,161 L0,159 Z M-3,160 L-3,161 L-2,161 L-2,160 Z M26,164 L26,165 L27,165 L27,164 Z M3,173 L3,174 L4,174 L4,173 Z M17,174 L17,175 L18,175 L18,174 Z " fill="#EDD16D" transform="translate(278,163)"/>
<path d="M0,0 L2,0 L2,2 L3,2 L3,3 L4,3 L4,5 L7,5 L7,6 L8,6 L8,8 L9,8 L9,9 L10,9 L10,10 L11,10 L11,11 L12,11 L12,12 L13,12 L13,13 L14,13 L14,15 L15,15 L15,16 L16,16 L16,17 L17,17 L17,18 L18,18 L18,20 L19,20 L19,21 L20,21 L20,23 L21,23 L21,24 L22,24 L22,25 L23,25 L23,26 L24,26 L24,28 L25,28 L25,29 L26,29 L26,30 L27,30 L27,31 L28,31 L28,35 L29,35 L29,36 L30,36 L30,37 L31,37 L31,38 L32,38 L32,39 L33,39 L33,41 L34,41 L34,42 L35,42 L35,43 L36,43 L36,45 L37,45 L37,47 L38,47 L38,48 L39,48 L39,49 L40,49 L40,52 L41,52 L41,53 L42,53 L42,55 L43,55 L43,57 L44,57 L44,61 L45,61 L45,67 L46,67 L46,91 L45,91 L45,95 L44,95 L44,97 L40,97 L40,96 L31,96 L31,95 L24,95 L24,94 L20,94 L20,93 L19,93 L19,92 L16,92 L16,91 L15,91 L15,90 L14,90 L14,89 L13,89 L13,87 L12,87 L12,86 L10,86 L10,88 L9,88 L9,92 L8,92 L8,98 L7,98 L7,103 L6,103 L6,107 L5,107 L5,110 L4,110 L4,114 L5,114 L5,115 L7,115 L7,117 L8,117 L8,119 L7,119 L7,123 L6,123 L6,125 L5,125 L5,128 L4,128 L4,130 L3,130 L3,135 L4,135 L4,136 L5,136 L5,137 L6,137 L6,138 L7,138 L7,139 L8,139 L8,140 L9,140 L9,141 L10,141 L10,142 L11,142 L11,143 L12,143 L12,144 L13,144 L13,147 L14,147 L14,151 L13,151 L13,154 L12,154 L12,155 L11,155 L11,156 L10,156 L10,157 L9,157 L9,158 L10,158 L10,159 L9,159 L9,160 L7,160 L7,159 L5,159 L5,160 L4,160 L4,165 L3,165 L3,159 L2,159 L2,167 L1,167 L1,169 L0,169 L0,170 L-1,170 L-1,171 L-2,171 L-2,172 L-3,172 L-3,173 L-4,173 L-4,174 L-3,174 L-3,175 L-4,175 L-4,176 L-6,176 L-6,175 L-13,175 L-13,176 L-16,176 L-16,175 L-18,175 L-18,174 L-19,174 L-19,173 L-18,173 L-18,172 L-19,172 L-19,171 L-20,171 L-20,170 L-21,170 L-21,169 L-23,169 L-23,168 L-22,168 L-22,167 L-23,167 L-23,166 L-24,166 L-24,164 L-25,164 L-25,162 L-26,162 L-26,161 L-27,161 L-27,160 L-30,160 L-30,159 L-29,159 L-29,158 L-30,158 L-30,156 L-31,156 L-31,155 L-32,155 L-32,142 L-31,142 L-31,139 L-30,139 L-30,136 L-31,136 L-31,134 L-30,134 L-30,133 L-29,133 L-29,134 L-28,134 L-28,133 L-27,133 L-27,132 L-28,132 L-28,130 L-27,130 L-27,131 L-26,131 L-26,130 L-25,130 L-25,128 L-24,128 L-24,116 L-23,116 L-23,114 L-24,114 L-24,112 L-23,112 L-23,111 L-24,111 L-24,110 L-23,110 L-23,109 L-18,109 L-18,105 L-17,105 L-17,109 L-16,109 L-16,103 L-15,103 L-15,98 L-14,98 L-14,93 L-15,93 L-15,88 L-14,88 L-14,84 L-13,84 L-13,80 L-12,80 L-12,84 L-11,84 L-11,79 L-10,79 L-10,72 L-9,72 L-9,67 L-8,67 L-8,62 L-7,62 L-7,57 L-8,57 L-8,52 L-7,52 L-7,48 L-6,48 L-6,52 L-5,52 L-5,44 L-4,44 L-4,37 L-3,37 L-3,30 L-2,30 L-2,22 L-3,22 L-3,29 L-4,29 L-4,20 L-3,20 L-3,13 L-2,13 L-2,2 L-1,2 L-1,13 L0,13 L0,2 L1,2 L1,1 L0,1 Z M-2,14 L-2,22 L-1,22 L-1,14 Z M-7,53 L-7,57 L-6,57 L-6,53 Z M-13,85 L-13,89 L-12,89 L-12,85 Z M-14,89 L-14,93 L-13,93 L-13,89 Z M-22,110 L-22,111 L-19,111 L-19,110 Z M-18,110 L-18,111 L-17,111 L-17,110 Z M3,114 L3,115 L4,115 L4,114 Z M-30,135 L-30,136 L-29,136 L-29,135 Z M7,158 L7,159 L8,159 L8,158 Z M-17,173 L-17,174 L-16,174 L-16,173 Z M-15,174 L-15,175 L-14,175 L-14,174 Z M-6,174 L-6,175 L-5,175 L-5,174 Z " fill="#CC9F3B" transform="translate(32,161)"/>
<path d="M0,0 L13,0 L13,1 L21,1 L21,2 L23,2 L23,3 L26,3 L26,4 L27,4 L27,5 L29,5 L29,6 L31,6 L31,7 L32,7 L32,8 L34,8 L34,9 L35,9 L35,10 L36,10 L36,11 L37,11 L37,13 L38,13 L38,14 L39,14 L39,15 L40,15 L40,16 L41,16 L41,17 L42,17 L42,19 L43,19 L43,21 L44,21 L44,25 L45,25 L45,30 L46,30 L46,41 L45,41 L45,43 L44,43 L44,49 L42,49 L42,53 L32,53 L32,51 L33,51 L33,49 L34,49 L34,47 L35,47 L35,44 L36,44 L36,36 L35,36 L35,34 L34,34 L34,32 L33,32 L33,31 L32,31 L32,30 L31,30 L31,29 L30,29 L30,28 L28,28 L28,27 L26,27 L26,26 L16,26 L16,27 L14,27 L14,28 L13,28 L13,29 L11,29 L11,30 L10,30 L10,32 L9,32 L9,33 L8,33 L8,35 L7,35 L7,37 L6,37 L6,46 L5,46 L5,48 L-16,48 L-16,49 L-25,49 L-25,50 L-33,50 L-33,44 L-34,44 L-34,37 L-35,37 L-35,30 L-34,30 L-34,27 L-33,27 L-33,26 L-32,26 L-32,20 L-31,20 L-31,18 L-30,18 L-30,17 L-29,17 L-29,16 L-28,16 L-28,15 L-27,15 L-27,14 L-25,14 L-25,12 L-24,12 L-24,11 L-22,11 L-22,10 L-21,10 L-21,9 L-20,9 L-20,8 L-18,8 L-18,7 L-17,7 L-17,6 L-15,6 L-15,5 L-14,5 L-14,4 L-10,4 L-10,3 L-9,3 L-9,2 L-4,2 L-4,1 L0,1 Z " fill="#EBE9E7" transform="translate(98,55)"/>
<path d="M0,0 L19,0 L19,1 L24,1 L24,2 L30,2 L30,4 L33,4 L33,5 L34,5 L34,6 L37,6 L37,5 L39,5 L39,6 L42,6 L42,8 L43,8 L43,9 L44,9 L44,10 L45,10 L45,13 L46,13 L46,16 L47,16 L47,17 L48,17 L48,18 L49,18 L49,19 L51,19 L51,22 L52,22 L52,26 L53,26 L53,30 L54,30 L54,49 L53,49 L53,50 L22,50 L22,46 L23,46 L23,36 L22,36 L22,34 L21,34 L21,33 L20,33 L20,31 L19,31 L19,30 L18,30 L18,29 L17,29 L17,28 L15,28 L15,27 L13,27 L13,26 L2,26 L2,27 L0,27 L0,28 L-1,28 L-1,29 L-2,29 L-2,30 L-3,30 L-3,31 L-4,31 L-4,32 L-5,32 L-5,34 L-6,34 L-6,37 L-7,37 L-7,43 L-6,43 L-6,47 L-5,47 L-5,48 L-4,48 L-4,50 L-3,50 L-3,51 L-2,51 L-2,52 L-1,52 L-1,55 L-2,55 L-2,56 L-11,56 L-11,57 L-16,57 L-16,58 L-15,58 L-15,60 L-14,60 L-14,62 L-13,62 L-13,63 L-12,63 L-12,65 L-13,65 L-13,64 L-14,64 L-14,63 L-15,63 L-15,62 L-16,62 L-16,60 L-17,60 L-17,57 L-18,57 L-18,55 L-19,55 L-19,53 L-20,53 L-20,47 L-21,47 L-21,30 L-20,30 L-20,26 L-19,26 L-19,23 L-18,23 L-18,21 L-17,21 L-17,19 L-16,19 L-16,18 L-15,18 L-15,17 L-14,17 L-14,15 L-13,15 L-13,12 L-12,12 L-12,10 L-11,10 L-11,9 L-10,9 L-10,8 L-9,8 L-9,7 L-8,7 L-8,5 L-7,5 L-7,4 L-6,4 L-6,3 L-4,3 L-4,2 L-1,2 L-1,1 L0,1 Z " fill="#F1EEE9" transform="translate(184,54)"/>
<path d="M0,0 L10,0 L10,1 L12,1 L12,2 L14,2 L14,3 L15,3 L15,4 L16,4 L16,5 L17,5 L17,6 L18,6 L18,8 L19,8 L19,10 L20,10 L20,18 L19,18 L19,21 L18,21 L18,23 L17,23 L17,25 L16,25 L16,27 L23,27 L23,29 L28,29 L28,30 L30,30 L30,31 L31,31 L31,32 L30,32 L30,34 L29,34 L29,35 L28,35 L28,37 L27,37 L27,38 L26,38 L26,40 L25,40 L25,41 L24,41 L24,42 L23,42 L23,43 L22,43 L22,44 L21,44 L21,45 L20,45 L20,46 L19,46 L19,47 L17,47 L17,48 L16,48 L16,49 L14,49 L14,50 L13,50 L13,51 L10,51 L10,52 L9,52 L9,53 L2,53 L2,55 L-16,55 L-16,54 L-18,54 L-18,53 L-23,53 L-23,52 L-25,52 L-25,51 L-27,51 L-27,50 L-28,50 L-28,49 L-31,49 L-31,48 L-32,48 L-32,47 L-34,47 L-34,46 L-35,46 L-35,45 L-36,45 L-36,44 L-37,44 L-37,43 L-38,43 L-38,42 L-39,42 L-39,41 L-40,41 L-40,40 L-41,40 L-41,39 L-42,39 L-42,37 L-43,37 L-43,36 L-44,36 L-44,35 L-45,35 L-45,33 L-46,33 L-46,31 L-47,31 L-47,29 L-48,29 L-48,24 L-41,24 L-41,23 L-32,23 L-32,22 L-11,22 L-11,20 L-10,20 L-10,11 L-9,11 L-9,9 L-8,9 L-8,7 L-7,7 L-7,6 L-6,6 L-6,4 L-5,4 L-5,3 L-3,3 L-3,2 L-2,2 L-2,1 L0,1 Z " fill="#EAC657" transform="translate(114,81)"/>
<path d="M0,0 L1,0 L1,3 L2,3 L2,7 L3,7 L3,6 L5,6 L5,7 L6,7 L6,8 L16,8 L16,7 L21,7 L21,6 L24,6 L24,5 L25,5 L25,2 L26,2 L26,3 L30,3 L30,4 L26,4 L26,5 L30,5 L30,6 L31,6 L31,8 L30,8 L30,9 L31,9 L31,21 L32,21 L32,24 L33,24 L33,25 L34,25 L34,27 L35,27 L35,29 L36,29 L36,30 L37,30 L37,33 L38,33 L38,37 L39,37 L39,48 L38,48 L38,50 L37,50 L37,51 L36,51 L36,52 L35,52 L35,53 L34,53 L34,54 L33,54 L33,55 L32,55 L32,57 L33,57 L33,59 L32,59 L32,60 L31,60 L31,59 L30,59 L30,60 L29,60 L29,62 L28,62 L28,63 L27,63 L27,64 L26,64 L26,65 L25,65 L25,66 L24,66 L24,67 L25,67 L25,68 L24,68 L24,69 L22,69 L22,68 L11,68 L11,67 L10,67 L10,69 L9,69 L9,68 L8,68 L8,67 L7,67 L7,66 L6,66 L6,65 L7,65 L7,64 L6,64 L6,62 L5,62 L5,58 L4,58 L4,54 L3,54 L3,58 L2,58 L2,55 L1,55 L1,54 L-1,54 L-1,53 L1,53 L1,52 L-1,52 L-1,51 L-2,51 L-2,52 L-4,52 L-4,51 L-3,51 L-3,50 L-4,50 L-4,49 L-5,49 L-5,48 L-6,48 L-6,46 L-7,46 L-7,38 L-6,38 L-6,37 L-5,37 L-5,36 L-6,36 L-6,34 L-4,34 L-4,35 L-3,35 L-3,34 L-2,34 L-2,33 L-1,33 L-1,32 L0,32 L0,31 L1,31 L1,30 L2,30 L2,29 L3,29 L3,28 L4,28 L4,24 L3,24 L3,22 L2,22 L2,19 L1,19 L1,17 L0,17 L0,13 L-1,13 L-1,12 L-2,12 L-2,10 L-1,10 L-1,9 L-2,9 L-2,8 L-1,8 L-1,7 L1,7 L1,4 L0,4 Z M3,7 L3,8 L4,8 L4,7 Z M0,8 L0,9 L1,9 L1,8 Z M4,52 L4,54 L5,54 L5,52 Z M2,53 L2,54 L3,54 L3,53 Z M31,57 L31,58 L32,58 L32,57 Z M8,66 L8,67 L9,67 L9,66 Z M22,67 L22,68 L23,68 L23,67 Z " fill="#22211F" transform="translate(273,270)"/>
<path d="M0,0 L1,0 L1,5 L0,5 L0,6 L1,6 L1,7 L2,7 L2,8 L6,8 L6,9 L12,9 L12,10 L14,10 L14,11 L20,11 L20,10 L22,10 L22,9 L23,9 L23,10 L25,10 L25,12 L26,12 L26,14 L25,14 L25,18 L24,18 L24,20 L23,20 L23,23 L22,23 L22,25 L21,25 L21,30 L22,30 L22,31 L23,31 L23,32 L24,32 L24,33 L25,33 L25,34 L26,34 L26,35 L27,35 L27,36 L28,36 L28,37 L29,37 L29,38 L30,38 L30,39 L31,39 L31,42 L32,42 L32,46 L31,46 L31,49 L30,49 L30,50 L29,50 L29,51 L28,51 L28,52 L27,52 L27,53 L28,53 L28,54 L27,54 L27,55 L25,55 L25,54 L23,54 L23,55 L22,55 L22,60 L21,60 L21,54 L20,54 L20,62 L19,62 L19,64 L18,64 L18,65 L17,65 L17,66 L16,66 L16,67 L15,67 L15,68 L14,68 L14,69 L15,69 L15,70 L14,70 L14,71 L12,71 L12,70 L5,70 L5,71 L2,71 L2,70 L0,70 L0,69 L-1,69 L-1,68 L0,68 L0,67 L-1,67 L-1,66 L-2,66 L-2,65 L-3,65 L-3,64 L-5,64 L-5,63 L-4,63 L-4,62 L-5,62 L-5,61 L-6,61 L-6,59 L-7,59 L-7,57 L-8,57 L-8,56 L-9,56 L-9,55 L-12,55 L-12,54 L-11,54 L-11,53 L-12,53 L-12,51 L-13,51 L-13,50 L-14,50 L-14,37 L-13,37 L-13,34 L-12,34 L-12,31 L-13,31 L-13,29 L-12,29 L-12,28 L-11,28 L-11,29 L-10,29 L-10,28 L-9,28 L-9,27 L-10,27 L-10,25 L-9,25 L-9,26 L-8,26 L-8,25 L-7,25 L-7,23 L-6,23 L-6,11 L-5,11 L-5,9 L-6,9 L-6,7 L-5,7 L-5,6 L-6,6 L-6,5 L-5,5 L-5,4 L0,4 Z M-4,5 L-4,6 L-1,6 L-1,5 Z M-12,30 L-12,31 L-11,31 L-11,30 Z M25,53 L25,54 L26,54 L26,53 Z M1,68 L1,69 L2,69 L2,68 Z M3,69 L3,70 L4,70 L4,69 Z M12,69 L12,70 L13,70 L13,69 Z " fill="#242221" transform="translate(14,266)"/>
<path d="M0,0 L3,0 L3,1 L4,1 L4,2 L5,2 L5,3 L7,3 L7,4 L8,4 L8,5 L9,5 L9,6 L10,6 L10,7 L11,7 L11,8 L12,8 L12,9 L14,9 L14,10 L15,10 L15,11 L16,11 L16,12 L17,12 L17,13 L19,13 L19,14 L20,14 L20,15 L22,15 L22,16 L23,16 L23,17 L25,17 L25,18 L26,18 L26,19 L28,19 L28,20 L30,20 L30,21 L34,21 L34,22 L36,22 L36,23 L49,23 L49,24 L50,24 L50,25 L48,25 L48,26 L47,26 L47,27 L46,27 L46,29 L44,29 L44,31 L38,31 L38,32 L36,32 L36,33 L35,33 L35,37 L34,37 L34,41 L35,41 L35,46 L37,46 L37,47 L38,47 L38,49 L39,49 L39,50 L40,50 L40,54 L41,54 L41,57 L42,57 L42,58 L40,58 L40,59 L41,59 L41,60 L38,60 L38,59 L35,59 L35,58 L34,58 L34,57 L31,57 L31,56 L29,56 L29,55 L28,55 L28,53 L26,53 L26,51 L24,51 L24,50 L20,50 L20,51 L16,51 L16,52 L0,52 L0,51 L-6,51 L-6,50 L-9,50 L-9,49 L-12,49 L-12,48 L-15,48 L-15,47 L-16,47 L-16,46 L-13,46 L-13,47 L-10,47 L-10,48 L-6,48 L-6,49 L-4,49 L-4,50 L17,50 L17,49 L20,49 L20,48 L22,48 L22,33 L20,33 L20,31 L19,31 L19,30 L7,30 L7,29 L2,29 L2,28 L-1,28 L-1,27 L-4,27 L-4,26 L-6,26 L-6,25 L-9,25 L-9,24 L-10,24 L-10,23 L-13,23 L-13,22 L-14,22 L-14,21 L-16,21 L-16,20 L-21,20 L-21,19 L-20,19 L-20,17 L-18,17 L-18,16 L-17,16 L-17,15 L-16,15 L-16,13 L-13,13 L-13,12 L-12,12 L-12,10 L-11,10 L-11,9 L-9,9 L-9,8 L-8,8 L-8,7 L-7,7 L-7,6 L-6,6 L-6,5 L-5,5 L-5,4 L-4,4 L-4,3 L-3,3 L-3,2 L-2,2 L-2,1 L0,1 Z " fill="#CE9B1A" transform="translate(156,127)"/>
<path d="M0,0 L11,0 L11,1 L13,1 L13,2 L15,2 L15,3 L16,3 L16,4 L17,4 L17,5 L18,5 L18,7 L19,7 L19,8 L20,8 L20,10 L21,10 L21,20 L20,20 L20,22 L19,22 L19,24 L18,24 L18,25 L14,25 L14,26 L7,26 L7,27 L4,27 L4,28 L-2,28 L-2,27 L-3,27 L-3,26 L-4,26 L-4,25 L-5,25 L-5,24 L-6,24 L-6,22 L-7,22 L-7,21 L-8,21 L-8,17 L-9,17 L-9,11 L-8,11 L-8,8 L-7,8 L-7,6 L-6,6 L-6,5 L-5,5 L-5,4 L-4,4 L-4,3 L-3,3 L-3,2 L-2,2 L-2,1 L0,1 Z " fill="#6E4324" transform="translate(186,80)"/>
<path d="M0,0 L5,0 L5,1 L11,1 L11,2 L17,2 L17,4 L19,4 L19,5 L20,5 L20,6 L27,6 L27,7 L28,7 L28,13 L24,13 L24,17 L25,17 L25,19 L26,19 L26,20 L28,20 L28,21 L26,21 L26,23 L24,23 L24,21 L23,21 L23,24 L25,24 L25,25 L24,25 L24,27 L20,27 L20,26 L15,26 L15,27 L11,27 L11,26 L9,26 L9,25 L8,25 L8,24 L7,24 L7,21 L6,21 L6,22 L-1,22 L-1,21 L-3,21 L-3,20 L-4,20 L-4,19 L-3,19 L-3,18 L-4,18 L-4,11 L-3,11 L-3,8 L-2,8 L-2,6 L-1,6 L-1,4 L-2,4 L-2,3 L-1,3 L-1,1 L0,1 Z M-2,19 L-2,20 L-1,20 L-1,19 Z M0,20 L0,21 L4,21 L4,20 Z M5,20 L5,21 L6,21 L6,20 Z M11,25 L11,26 L13,26 L13,25 Z M14,25 L14,26 L15,26 L15,25 Z " fill="#101111" transform="translate(160,333)"/>
<path d="M0,0 L10,0 L10,1 L12,1 L12,2 L14,2 L14,3 L15,3 L15,4 L16,4 L16,5 L17,5 L17,6 L18,6 L18,8 L19,8 L19,10 L20,10 L20,18 L19,18 L19,21 L18,21 L18,23 L17,23 L17,25 L16,25 L16,26 L12,26 L12,25 L6,25 L6,24 L0,24 L0,23 L-8,23 L-8,22 L-9,22 L-9,19 L-10,19 L-10,11 L-9,11 L-9,9 L-8,9 L-8,7 L-7,7 L-7,6 L-6,6 L-6,4 L-5,4 L-5,3 L-3,3 L-3,2 L-2,2 L-2,1 L0,1 Z " fill="#5D492B" transform="translate(114,81)"/>
<path d="M0,0 L1,0 L1,5 L3,5 L3,4 L4,4 L4,5 L8,5 L8,6 L7,6 L7,9 L8,9 L8,16 L9,16 L9,19 L10,19 L10,21 L11,21 L11,28 L6,28 L6,29 L5,29 L5,30 L4,30 L4,31 L2,31 L2,41 L0,41 L0,42 L-2,42 L-2,43 L-5,43 L-5,45 L-6,45 L-6,46 L-7,46 L-7,49 L-8,49 L-8,53 L-9,53 L-9,55 L-10,55 L-10,56 L-12,56 L-12,57 L-13,57 L-13,59 L-14,59 L-14,60 L-15,60 L-15,61 L-16,61 L-16,62 L-17,62 L-17,63 L-18,63 L-18,65 L-19,65 L-19,66 L-20,66 L-20,67 L-21,67 L-21,68 L-22,68 L-22,69 L-23,69 L-23,70 L-24,70 L-24,71 L-26,71 L-26,72 L-27,72 L-27,73 L-28,73 L-28,74 L-29,74 L-29,75 L-30,75 L-30,76 L-31,76 L-31,77 L-36,77 L-36,78 L-38,78 L-38,79 L-41,79 L-41,80 L-43,80 L-43,81 L-45,81 L-45,82 L-51,82 L-51,83 L-76,83 L-76,82 L-78,82 L-78,81 L-82,81 L-82,80 L-84,80 L-84,79 L-86,79 L-86,78 L-87,78 L-87,77 L-84,77 L-84,78 L-81,78 L-81,79 L-78,79 L-78,80 L-70,80 L-70,82 L-52,82 L-52,81 L-47,81 L-47,79 L-42,79 L-42,78 L-41,78 L-41,77 L-38,77 L-38,76 L-36,76 L-36,75 L-34,75 L-34,74 L-32,74 L-32,73 L-30,73 L-30,72 L-29,72 L-29,71 L-28,71 L-28,70 L-26,70 L-26,69 L-25,69 L-25,68 L-24,68 L-24,67 L-23,67 L-23,66 L-22,66 L-22,65 L-21,65 L-21,64 L-20,64 L-20,63 L-19,63 L-19,62 L-18,62 L-18,61 L-17,61 L-17,59 L-16,59 L-16,58 L-15,58 L-15,57 L-14,57 L-14,55 L-13,55 L-13,53 L-12,53 L-12,52 L-11,52 L-11,49 L-9,49 L-9,47 L-8,47 L-8,44 L-7,44 L-7,42 L-6,42 L-6,37 L-5,37 L-5,33 L-4,33 L-4,27 L-3,27 L-3,39 L-1,39 L-1,25 L-2,25 L-2,26 L-3,26 L-3,22 L-1,22 L-1,20 L-2,20 L-2,18 L0,18 Z " fill="#827D73" transform="translate(268,67)"/>
<path d="M0,0 L2,0 L2,1 L3,1 L3,2 L5,2 L5,3 L6,3 L6,4 L8,4 L8,5 L9,5 L9,6 L10,6 L10,7 L11,7 L11,8 L12,8 L12,9 L13,9 L13,10 L14,10 L14,11 L15,11 L15,12 L16,12 L16,14 L17,14 L17,15 L18,15 L18,16 L19,16 L19,18 L20,18 L20,19 L21,19 L21,20 L24,20 L24,21 L22,21 L22,22 L24,22 L24,23 L25,23 L25,29 L26,29 L26,20 L29,20 L29,40 L28,40 L28,42 L29,42 L29,44 L27,44 L27,48 L28,48 L28,47 L29,47 L29,61 L27,61 L27,49 L26,49 L26,55 L25,55 L25,59 L24,59 L24,61 L22,61 L22,39 L21,39 L21,35 L19,35 L19,33 L18,33 L18,29 L16,29 L16,26 L15,26 L15,24 L14,24 L14,23 L13,23 L13,21 L12,21 L12,19 L11,19 L11,13 L10,13 L10,11 L9,11 L9,10 L8,10 L8,9 L6,9 L6,8 L5,8 L5,7 L4,7 L4,6 L3,6 L3,4 L2,4 L2,3 L1,3 L1,2 L0,2 Z " fill="#E5E6E7" transform="translate(238,45)"/>
<path d="M0,0 L27,0 L27,1 L33,1 L33,2 L34,2 L34,10 L35,10 L35,11 L32,11 L32,12 L28,12 L28,13 L-2,13 L-2,11 L-1,11 L-1,2 L0,2 Z " fill="#54708A" transform="translate(118,321)"/>
<path d="M0,0 L2,0 L2,1 L3,1 L3,14 L4,14 L4,17 L5,17 L5,18 L6,18 L6,19 L7,19 L7,34 L8,34 L8,36 L9,36 L9,22 L8,22 L8,19 L9,19 L9,21 L10,21 L10,25 L11,25 L11,33 L12,33 L12,35 L13,35 L13,37 L14,37 L14,39 L15,39 L15,42 L16,42 L16,45 L17,45 L17,46 L18,46 L18,48 L19,48 L19,50 L20,50 L20,51 L21,51 L21,53 L22,53 L22,54 L23,54 L23,56 L24,56 L24,57 L25,57 L25,58 L26,58 L26,59 L27,59 L27,60 L28,60 L28,61 L29,61 L29,62 L30,62 L30,63 L31,63 L31,64 L32,64 L32,65 L34,65 L34,66 L35,66 L35,67 L38,67 L38,68 L39,68 L39,69 L40,69 L40,70 L42,70 L42,71 L37,71 L37,69 L35,69 L35,68 L34,68 L34,67 L33,67 L33,66 L31,66 L31,65 L30,65 L30,64 L29,64 L29,63 L27,63 L27,62 L26,62 L26,61 L25,61 L25,59 L23,59 L23,57 L22,57 L22,56 L21,56 L21,54 L20,54 L20,53 L19,53 L19,51 L17,51 L17,50 L16,50 L16,46 L15,46 L15,44 L14,44 L14,42 L13,42 L13,39 L9,39 L9,37 L5,37 L5,33 L4,33 L4,28 L3,28 L3,27 L2,27 L2,26 L1,26 L1,25 L-2,25 L-2,24 L-5,24 L-5,23 L-6,23 L-6,19 L-5,19 L-5,16 L-4,16 L-4,15 L-5,15 L-5,11 L-4,11 L-4,10 L-5,10 L-5,6 L-4,6 L-4,3 L-3,3 L-3,6 L-2,6 L-2,3 L-1,3 L-1,1 L0,1 Z M-4,7 L-4,9 L-3,9 L-3,7 Z M-3,9 L-3,12 L-2,12 L-2,9 Z M-4,12 L-4,15 L-3,15 L-3,12 Z " fill="#5B5955" transform="translate(39,75)"/>
<path d="M0,0 L1,0 L1,18 L0,18 Z " fill="#8D9EA3" transform="translate(285,142)"/>
<path d="M0,0 L1,0 L1,16 L0,16 Z " fill="#657F91" transform="translate(28,140)"/>
<path d="M0,0 L1,0 L1,12 L0,12 Z " fill="#2B2D2C" transform="translate(105,346)"/>
<path d="M0,0 L1,0 L1,12 L0,12 Z " fill="#1D1F1F" transform="translate(6,277)"/>
<path d="M0,0 L1,0 L1,12 L0,12 Z " fill="#313232" transform="translate(305,279)"/>
<path d="M0,0 L1,0 L1,5 L0,5 L0,10 L-1,10 L-1,4 L0,4 Z " fill="#B49262" transform="translate(23,218)"/>
<path d="M0,0 L1,0 L1,2 L2,2 L2,10 L1,10 L1,3 L0,3 Z " fill="#3B3B3B" transform="translate(276,73)"/>
<path d="M0,0 L1,0 L1,4 L2,4 L2,9 L1,9 L1,5 L0,5 Z " fill="#E3CC93" transform="translate(294,250)"/>
<path d="M0,0 L1,0 L1,10 L0,10 Z " fill="#E3C68A" transform="translate(280,107)"/>
<path d="M0,0 L1,0 L1,10 L0,10 Z " fill="#AB947C" transform="translate(32,106)"/>
<path d="M0,0 L1,0 L1,1 L2,1 L2,6 L3,6 L3,7 L1,7 L1,2 L0,2 Z " fill="#B9AD82" transform="translate(271,64)"/>
<path d="M0,0 L8,0 L8,1 L0,1 Z " fill="#191919" transform="translate(285,339)"/>
<path d="M0,0 L1,0 L1,3 L0,3 L0,7 L-1,7 L-1,2 L0,2 Z " fill="#2A2A2A" transform="translate(37,289)"/>
<path d="M0,0 L1,0 L1,4 L0,4 L0,7 L-1,7 L-1,3 L0,3 Z " fill="#C79F57" transform="translate(38,268)"/>
<path d="M0,0 L1,0 L1,5 L0,5 L0,6 L-1,6 L-1,3 L0,3 Z " fill="#56605D" transform="translate(271,260)"/>
<path d="M0,0 L1,0 L1,4 L0,4 L0,6 L-1,6 L-1,3 L0,3 Z " fill="#403F3E" transform="translate(205,348)"/>
<path d="M0,0 L7,0 L7,1 L0,1 Z " fill="#1E1E1E" transform="translate(19,337)"/>
<path d="M0,0 L1,0 L1,7 L0,7 Z " fill="#1B1C1D" transform="translate(264,309)"/>
<path d="M0,0 L1,0 L1,2 L2,2 L2,6 L1,6 L1,3 L0,3 Z " fill="#131413" transform="translate(274,292)"/>
<path d="M0,0 L1,0 L1,3 L2,3 L2,6 L1,6 L1,4 L0,4 Z " fill="#403E33" transform="translate(40,259)"/>
<path d="M0,0 L1,0 L1,7 L0,7 Z " fill="#AA8966" transform="translate(33,99)"/>
<path d="M0,0 L1,0 L1,6 L0,6 Z " fill="#E9C990" transform="translate(290,223)"/>
<path d="M0,0 L1,0 L1,6 L0,6 Z " fill="#B99A6C" transform="translate(27,190)"/>
<path d="M0,0 L1,0 L1,2 L2,2 L2,4 L1,4 L1,3 L0,3 Z " fill="#1A1819" transform="translate(6,273)"/>
<path d="M0,0 L1,0 L1,5 L0,5 Z " fill="#DECB94" transform="translate(293,245)"/>
<path d="M0,0 L1,0 L1,5 L0,5 Z " fill="#E5CA8C" transform="translate(292,240)"/>
<path d="M0,0 L1,0 L1,5 L0,5 Z " fill="#B39A76" transform="translate(26,198)"/>
<path d="M0,0 L1,0 L1,5 L0,5 Z " fill="#E2CC9B" transform="translate(285,180)"/>
<path d="M0,0 L1,0 L1,2 L2,2 L2,4 L1,4 L1,3 L0,3 Z " fill="#515B5E" transform="translate(27,156)"/>
<path d="M0,0 L1,0 L1,5 L0,5 Z " fill="#2F2F2F" transform="translate(280,89)"/>
<path d="M0,0 L1,0 L1,2 L0,2 L0,3 L-1,3 L-1,1 L0,1 Z " fill="#4E5150" transform="translate(107,343)"/>
<path d="M0,0 L1,0 L1,2 L0,2 L0,3 L-1,3 L-1,1 L0,1 Z " fill="#363636" transform="translate(307,324)"/>
<path d="M0,0 L1,0 L1,4 L0,4 Z " fill="#222423" transform="translate(47,308)"/>
<path d="M0,0 L1,0 L1,1 L2,1 L2,3 L1,3 L1,2 L0,2 Z " fill="#383B3D" transform="translate(309,297)"/>
<path d="M0,0 L1,0 L1,2 L0,2 L0,3 L-1,3 L-1,1 L0,1 Z " fill="#77858D" transform="translate(260,286)"/>
<path d="M0,0 L2,0 L2,3 L1,3 L1,1 L0,1 Z " fill="#4C4C4D" transform="translate(304,275)"/>
<path d="M0,0 L1,0 L1,4 L0,4 Z " fill="#DEC492" transform="translate(297,268)"/>
<path d="M0,0 L1,0 L1,4 L0,4 Z " fill="#99794E" transform="translate(272,266)"/>
<path d="M0,0 L1,0 L1,4 L0,4 Z " fill="#C09956" transform="translate(39,264)"/>
<path d="M0,0 L1,0 L1,4 L0,4 Z " fill="#EAD094" transform="translate(296,260)"/>
<path d="M0,0 L1,0 L1,4 L0,4 Z " fill="#B69E70" transform="translate(16,254)"/>
<path d="M0,0 L1,0 L1,4 L0,4 Z " fill="#E8D297" transform="translate(291,235)"/>
<path d="M0,0 L1,0 L1,4 L0,4 Z " fill="#B59465" transform="translate(21,228)"/>
<path d="M0,0 L1,0 L1,4 L0,4 Z " fill="#D9C7A7" transform="translate(279,95)"/>
<path d="M0,0 L1,0 L1,1 L2,1 L2,3 L1,3 L1,2 L0,2 Z " fill="#E0CF9A" transform="translate(266,56)"/>
<path d="M0,0 L1,0 L1,1 L2,1 L2,3 L1,3 L1,2 L0,2 Z " fill="#EBD19A" transform="translate(260,46)"/>
<path d="M0,0 L1,0 L1,3 L0,3 Z " fill="#7B8581" transform="translate(205,354)"/>
<path d="M0,0 L1,0 L1,3 L0,3 Z " fill="#414D4D" transform="translate(204,345)"/>
<path d="M0,0 L1,0 L1,2 L-1,2 L-1,1 L0,1 Z " fill="#292929" transform="translate(299,335)"/>
<path d="M0,0 L1,0 L1,3 L0,3 Z " fill="#1A1A1A" transform="translate(276,328)"/>
<path d="M0,0 L1,0 L1,3 L0,3 Z " fill="#2F3133" transform="translate(311,300)"/>
<path d="M0,0 L1,0 L1,3 L0,3 Z " fill="#1C1C1C" transform="translate(0,297)"/>
<path d="M0,0 L1,0 L1,3 L0,3 Z " fill="#3B3B3A" transform="translate(306,291)"/>
<path d="M0,0 L1,0 L1,3 L0,3 Z " fill="#0F0F0F" transform="translate(273,289)"/>
<path d="M0,0 L1,0 L1,3 L0,3 Z " fill="#2C2A2B" transform="translate(38,286)"/>
<path d="M0,0 L1,0 L1,3 L0,3 Z " fill="#BB976C" transform="translate(15,259)"/>
<path d="M0,0 L1,0 L1,3 L0,3 Z " fill="#323232" transform="translate(278,83)"/>
<path d="M0,0 L3,0 L3,1 L0,1 Z " fill="#D4B782" transform="translate(211,8)"/>
<path d="M0,0 L3,0 L3,1 L0,1 Z " fill="#C9A776" transform="translate(108,5)"/>
<path d="M0,0 L1,0 L1,2 L0,2 Z " fill="#1E1C1C" transform="translate(303,330)"/>
<path d="M0,0 L1,0 L1,2 L0,2 Z " fill="#808F99" transform="translate(201,330)"/>
<path d="M0,0 L1,0 L1,2 L0,2 Z " fill="#393939" transform="translate(34,328)"/>
<path d="M0,0 L1,0 L1,2 L0,2 Z " fill="#1D2220" transform="translate(107,326)"/>
<path d="M0,0 L1,0 L1,2 L0,2 Z " fill="#1C1C1C" transform="translate(6,325)"/>
<path d="M0,0 L1,0 L1,2 L0,2 Z " fill="#1D2020" transform="translate(106,324)"/>
<path d="M0,0 L1,0 L1,2 L0,2 Z " fill="#0F0F0F" transform="translate(5,323)"/>
<path d="M0,0 L1,0 L1,2 L0,2 Z " fill="#7D95A8" transform="translate(205,322)"/>
<path d="M0,0 L1,0 L1,2 L0,2 Z " fill="#1B242E" transform="translate(105,322)"/>
<path d="M0,0 L2,0 L2,1 L0,1 Z " fill="#222222" transform="translate(37,321)"/>
<path d="M0,0 L1,0 L1,2 L0,2 Z " fill="#0D0E0E" transform="translate(0,317)"/>
<path d="M0,0 L2,0 L2,1 L0,1 Z " fill="#798DA4" transform="translate(216,316)"/>
<path d="M0,0 L2,0 L2,1 L0,1 Z " fill="#2C4656" transform="translate(97,316)"/>
<path d="M0,0 L2,0 L2,1 L0,1 Z " fill="#668089" transform="translate(220,315)"/>
<path d="M0,0 L1,0 L1,2 L0,2 Z " fill="#1C1E1D" transform="translate(46,312)"/>
<path d="M0,0 L2,0 L2,1 L0,1 Z " fill="#3B4D59" transform="translate(80,310)"/>
<path d="M0,0 L1,0 L1,2 L0,2 Z " fill="#282A2A" transform="translate(46,306)"/>
<path d="M0,0 L1,0 L1,2 L0,2 Z " fill="#0F0F0F" transform="translate(5,289)"/>
<path d="M0,0 L1,0 L1,2 L0,2 Z " fill="#191919" transform="translate(272,287)"/>
<path d="M0,0 L1,0 L1,2 L0,2 Z " fill="#151517" transform="translate(271,285)"/>
<path d="M0,0 L1,0 L1,2 L0,2 Z " fill="#658BAF" transform="translate(262,283)"/>
<path d="M0,0 L1,0 L1,2 L0,2 Z " fill="#8A959C" transform="translate(50,283)"/>
<path d="M0,0 L1,0 L1,2 L0,2 Z " fill="#211F1F" transform="translate(40,282)"/>
<path d="M0,0 L1,0 L1,2 L0,2 Z " fill="#272827" transform="translate(269,280)"/>
<path d="M0,0 L1,0 L1,2 L0,2 Z " fill="#637985" transform="translate(265,277)"/>
<path d="M0,0 L1,0 L1,2 L0,2 Z " fill="#252D2A" transform="translate(46,276)"/>
<path d="M0,0 L1,0 L1,2 L0,2 Z " fill="#849BAB" transform="translate(266,275)"/>
<path d="M0,0 L1,0 L1,2 L0,2 Z " fill="#343A3B" transform="translate(45,274)"/>
<path d="M0,0 L1,0 L1,2 L0,2 Z " fill="#384C5B" transform="translate(267,273)"/>
<path d="M0,0 L1,0 L1,2 L0,2 Z " fill="#20212A" transform="translate(44,272)"/>
<path d="M0,0 L1,0 L1,2 L0,2 Z " fill="#1E2A30" transform="translate(43,269)"/>
<path d="M0,0 L1,0 L1,2 L0,2 Z " fill="#1B1E36" transform="translate(269,266)"/>
<path d="M0,0 L1,0 L1,2 L0,2 Z " fill="#373630" transform="translate(42,265)"/>
<path d="M0,0 L1,0 L1,2 L0,2 Z " fill="#222726" transform="translate(32,91)"/>
<path d="M0,0 L1,0 L1,2 L0,2 Z " fill="#313131" transform="translate(36,76)"/>
<path d="M0,0 L1,0 L1,2 L0,2 Z " fill="#C89A43" transform="translate(44,61)"/>
<path d="M0,0 L1,0 L1,2 L0,2 Z " fill="#E7C68D" transform="translate(268,59)"/>
<path d="M0,0 L1,0 L1,2 L0,2 Z " fill="#CC9A41" transform="translate(45,59)"/>
<path d="M0,0 L1,0 L1,2 L0,2 Z " fill="#C59C4A" transform="translate(46,57)"/>
<path d="M0,0 L1,0 L1,2 L0,2 Z " fill="#E0C697" transform="translate(265,54)"/>
<path d="M0,0 L1,0 L1,2 L0,2 Z " fill="#C89C4B" transform="translate(50,50)"/>
<path d="M0,0 L1,0 L1,2 L0,2 Z " fill="#C7912D" transform="translate(53,46)"/>
<path d="M0,0 L1,0 L1,2 L0,2 Z " fill="#D4A956" transform="translate(59,38)"/>
<path d="M0,0 L2,0 L2,1 L0,1 Z " fill="#C19F5C" transform="translate(89,14)"/>
<path d="M0,0 L2,0 L2,1 L0,1 Z " fill="#E1C888" transform="translate(222,13)"/>
<path d="M0,0 L2,0 L2,1 L0,1 Z " fill="#C69E66" transform="translate(96,10)"/>
<path d="M0,0 L2,0 L2,1 L0,1 Z " fill="#E0C191" transform="translate(202,4)"/>
<path d="M0,0 L2,0 L2,1 L0,1 Z " fill="#C7AA85" transform="translate(111,4)"/>
<path d="M0,0 L1,0 L1,1 L0,1 Z " fill="#292C2B" transform="translate(204,357)"/>
<path d="M0,0 L1,0 L1,1 L0,1 Z " fill="#42454B" transform="translate(144,355)"/>
<path d="M0,0 L1,0 L1,1 L0,1 Z " fill="#636E6F" transform="translate(203,344)"/>
<path d="M0,0 L1,0 L1,1 L0,1 Z " fill="#474948" transform="translate(108,342)"/>
<path d="M0,0 L1,0 L1,1 L0,1 Z " fill="#57626A" transform="translate(201,341)"/>
<path d="M0,0 L1,0 L1,1 L0,1 Z " fill="#4C4F4E" transform="translate(109,341)"/>
<path d="M0,0 L1,0 L1,1 L0,1 Z " fill="#48545E" transform="translate(200,340)"/>
<path d="M0,0 L1,0 L1,1 L0,1 Z " fill="#474747" transform="translate(112,338)"/>
<path d="M0,0 L1,0 L1,1 L0,1 Z " fill="#1C1C1C" transform="translate(300,334)"/>
<path d="M0,0 L1,0 L1,1 L0,1 Z " fill="#151515" transform="translate(278,334)"/>
<path d="M0,0 L1,0 L1,1 L0,1 Z " fill="#333333" transform="translate(29,334)"/>
<path d="M0,0 L1,0 L1,1 L0,1 Z " fill="#3E4852" transform="translate(111,333)"/>
<path d="M0,0 L1,0 L1,1 L0,1 Z " fill="#252525" transform="translate(30,333)"/>
<path d="M0,0 L1,0 L1,1 L0,1 Z " fill="#232323" transform="translate(12,333)"/>
<path d="M0,0 L1,0 L1,1 L0,1 Z " fill="#2C2C2C" transform="translate(302,332)"/>
<path d="M0,0 L1,0 L1,1 L0,1 Z " fill="#1D1D1D" transform="translate(277,332)"/>
<path d="M0,0 L1,0 L1,1 L0,1 Z " fill="#93979A" transform="translate(200,332)"/>
<path d="M0,0 L1,0 L1,1 L0,1 Z " fill="#3B3E46" transform="translate(110,332)"/>
<path d="M0,0 L1,0 L1,1 L0,1 Z " fill="#363636" transform="translate(31,332)"/>
<path d="M0,0 L1,0 L1,1 L0,1 Z " fill="#1D1D1D" transform="translate(11,332)"/>
<path d="M0,0 L1,0 L1,1 L0,1 Z " fill="#2F2F2F" transform="translate(32,331)"/>
<path d="M0,0 L1,0 L1,1 L0,1 Z " fill="#2F2F2F" transform="translate(10,331)"/>
<path d="M0,0 L1,0 L1,1 L0,1 Z " fill="#484848" transform="translate(33,330)"/>
<path d="M0,0 L1,0 L1,1 L0,1 Z " fill="#242C32" transform="translate(109,329)"/>
<path d="M0,0 L1,0 L1,1 L0,1 Z " fill="#667A8A" transform="translate(202,328)"/>
<path d="M0,0 L1,0 L1,1 L0,1 Z " fill="#182122" transform="translate(108,328)"/>
<path d="M0,0 L1,0 L1,1 L0,1 Z " fill="#171717" transform="translate(8,328)"/>
<path d="M0,0 L1,0 L1,1 L0,1 Z " fill="#242424" transform="translate(7,327)"/>
<path d="M0,0 L1,0 L1,1 L0,1 Z " fill="#4D4D4D" transform="translate(308,323)"/>
<path d="M0,0 L1,0 L1,1 L0,1 Z " fill="#3E3E3E" transform="translate(309,322)"/>
<path d="M0,0 L1,0 L1,1 L0,1 Z " fill="#161618" transform="translate(271,322)"/>
<path d="M0,0 L1,0 L1,1 L0,1 Z " fill="#141414" transform="translate(4,322)"/>
<path d="M0,0 L1,0 L1,1 L0,1 Z " fill="#494949" transform="translate(310,321)"/>
<path d="M0,0 L1,0 L1,1 L0,1 Z " fill="#6C8588" transform="translate(206,321)"/>
<path d="M0,0 L1,0 L1,1 L0,1 Z " fill="#3A3A3A" transform="translate(311,320)"/>
<path d="M0,0 L1,0 L1,1 L0,1 Z " fill="#141316" transform="translate(268,320)"/>
<path d="M0,0 L1,0 L1,1 L0,1 Z " fill="#6E8793" transform="translate(207,320)"/>
<path d="M0,0 L1,0 L1,1 L0,1 Z " fill="#283C4E" transform="translate(104,320)"/>
<path d="M0,0 L1,0 L1,1 L0,1 Z " fill="#0E1011" transform="translate(267,319)"/>
<path d="M0,0 L1,0 L1,1 L0,1 Z " fill="#283845" transform="translate(103,319)"/>
<path d="M0,0 L1,0 L1,1 L0,1 Z " fill="#202322" transform="translate(1,319)"/>
<path d="M0,0 L1,0 L1,1 L0,1 Z " fill="#181818" transform="translate(42,318)"/>
<path d="M0,0 L1,0 L1,1 L0,1 Z " fill="#020202" transform="translate(43,317)"/>
<path d="M0,0 L1,0 L1,1 L0,1 Z " fill="#161819" transform="translate(265,316)"/>
<path d="M0,0 L1,0 L1,1 L0,1 Z " fill="#010101" transform="translate(44,316)"/>
<path d="M0,0 L1,0 L1,1 L0,1 Z " fill="#141414" transform="translate(45,315)"/>
<path d="M0,0 L1,0 L1,1 L0,1 Z " fill="#1C1C1C" transform="translate(265,307)"/>
<path d="M0,0 L1,0 L1,1 L0,1 Z " fill="#7D97A3" transform="translate(241,305)"/>
<path d="M0,0 L1,0 L1,1 L0,1 Z " fill="#2E3130" transform="translate(45,304)"/>
<path d="M0,0 L1,0 L1,1 L0,1 Z " fill="#1F1F1F" transform="translate(269,303)"/>
<path d="M0,0 L1,0 L1,1 L0,1 Z " fill="#2F2F2F" transform="translate(44,303)"/>
<path d="M0,0 L1,0 L1,1 L0,1 Z " fill="#1F1F1F" transform="translate(270,302)"/>
<path d="M0,0 L1,0 L1,1 L0,1 Z " fill="#363636" transform="translate(43,302)"/>
<path d="M0,0 L1,0 L1,1 L0,1 Z " fill="#1F1F1F" transform="translate(271,301)"/>
<path d="M0,0 L1,0 L1,1 L0,1 Z " fill="#484E55" transform="translate(66,301)"/>
<path d="M0,0 L1,0 L1,1 L0,1 Z " fill="#252525" transform="translate(42,301)"/>
<path d="M0,0 L1,0 L1,1 L0,1 Z " fill="#1E201F" transform="translate(272,300)"/>
<path d="M0,0 L1,0 L1,1 L0,1 Z " fill="#818A89" transform="translate(248,300)"/>
<path d="M0,0 L1,0 L1,1 L0,1 Z " fill="#455D73" transform="translate(65,300)"/>
<path d="M0,0 L1,0 L1,1 L0,1 Z " fill="#363434" transform="translate(41,300)"/>
<path d="M0,0 L1,0 L1,1 L0,1 Z " fill="#1F2121" transform="translate(273,299)"/>
<path d="M0,0 L1,0 L1,1 L0,1 Z " fill="#6D828D" transform="translate(249,299)"/>
<path d="M0,0 L1,0 L1,1 L0,1 Z " fill="#30495C" transform="translate(64,299)"/>
<path d="M0,0 L1,0 L1,1 L0,1 Z " fill="#282828" transform="translate(40,299)"/>
<path d="M0,0 L1,0 L1,1 L0,1 Z " fill="#242625" transform="translate(274,298)"/>
<path d="M0,0 L1,0 L1,1 L0,1 Z " fill="#678594" transform="translate(250,298)"/>
<path d="M0,0 L1,0 L1,1 L0,1 Z " fill="#232321" transform="translate(39,298)"/>
<path d="M0,0 L1,0 L1,1 L0,1 Z " fill="#7A96A3" transform="translate(251,297)"/>
<path d="M0,0 L1,0 L1,1 L0,1 Z " fill="#222220" transform="translate(38,297)"/>
<path d="M0,0 L1,0 L1,1 L0,1 Z " fill="#4F5150" transform="translate(308,296)"/>
<path d="M0,0 L1,0 L1,1 L0,1 Z " fill="#718F99" transform="translate(252,296)"/>
<path d="M0,0 L1,0 L1,1 L0,1 Z " fill="#2C2D2A" transform="translate(37,296)"/>
<path d="M0,0 L1,0 L1,1 L0,1 Z " fill="#718893" transform="translate(253,295)"/>
<path d="M0,0 L1,0 L1,1 L0,1 Z " fill="#4F4E55" transform="translate(307,294)"/>
<path d="M0,0 L1,0 L1,1 L0,1 Z " fill="#6F8086" transform="translate(254,294)"/>
<path d="M0,0 L1,0 L1,1 L0,1 Z " fill="#31475B" transform="translate(59,294)"/>
<path d="M0,0 L1,0 L1,1 L0,1 Z " fill="#737C72" transform="translate(255,293)"/>
<path d="M0,0 L1,0 L1,1 L0,1 Z " fill="#282828" transform="translate(3,293)"/>
<path d="M0,0 L1,0 L1,1 L0,1 Z " fill="#7384C2" transform="translate(257,290)"/>
<path d="M0,0 L1,0 L1,1 L0,1 Z " fill="#7C8990" transform="translate(258,289)"/>
<path d="M0,0 L1,0 L1,1 L0,1 Z " fill="#354959" transform="translate(54,289)"/>
<path d="M0,0 L1,0 L1,1 L0,1 Z " fill="#30404B" transform="translate(53,287)"/>
<path d="M0,0 L1,0 L1,1 L0,1 Z " fill="#323E45" transform="translate(52,286)"/>
<path d="M0,0 L1,0 L1,1 L0,1 Z " fill="#83878A" transform="translate(261,285)"/>
<path d="M0,0 L1,0 L1,1 L0,1 Z " fill="#333D45" transform="translate(51,285)"/>
<path d="M0,0 L1,0 L1,1 L0,1 Z " fill="#2D2A2B" transform="translate(39,285)"/>
<path d="M0,0 L1,0 L1,1 L0,1 Z " fill="#2A2A2C" transform="translate(270,282)"/>
<path d="M0,0 L1,0 L1,1 L0,1 Z " fill="#39434D" transform="translate(49,282)"/>
<path d="M0,0 L1,0 L1,1 L0,1 Z " fill="#292C2B" transform="translate(270,279)"/>
<path d="M0,0 L1,0 L1,1 L0,1 Z " fill="#637981" transform="translate(264,279)"/>
<path d="M0,0 L1,0 L1,1 L0,1 Z " fill="#575553" transform="translate(304,278)"/>
<path d="M0,0 L1,0 L1,1 L0,1 Z " fill="#273F47" transform="translate(47,278)"/>
<path d="M0,0 L1,0 L1,1 L0,1 Z " fill="#252728" transform="translate(7,272)"/>
<path d="M0,0 L1,0 L1,1 L0,1 Z " fill="#3C3E40" transform="translate(268,271)"/>
<path d="M0,0 L1,0 L1,1 L0,1 Z " fill="#C99F5E" transform="translate(20,239)"/>
<path d="M0,0 L1,0 L1,1 L0,1 Z " fill="#C9A465" transform="translate(20,237)"/>
<path d="M0,0 L1,0 L1,1 L0,1 Z " fill="#A1B4C0" transform="translate(284,161)"/>
<path d="M0,0 L1,0 L1,1 L0,1 Z " fill="#617C8C" transform="translate(29,160)"/>
<path d="M0,0 L1,0 L1,1 L0,1 Z " fill="#141B18" transform="translate(33,90)"/>
<path d="M0,0 L1,0 L1,1 L0,1 Z " fill="#424242" transform="translate(279,86)"/>
<path d="M0,0 L1,0 L1,1 L0,1 Z " fill="#C7B899" transform="translate(41,67)"/>
<path d="M0,0 L1,0 L1,1 L0,1 Z " fill="#C0A76B" transform="translate(42,66)"/>
<path d="M0,0 L1,0 L1,1 L0,1 Z " fill="#B5AE95" transform="translate(270,63)"/>
<path d="M0,0 L1,0 L1,1 L0,1 Z " fill="#C89C3C" transform="translate(43,63)"/>
<path d="M0,0 L1,0 L1,1 L0,1 Z " fill="#BE9E57" transform="translate(47,56)"/>
<path d="M0,0 L1,0 L1,1 L0,1 Z " fill="#FDE5A9" transform="translate(264,53)"/>
<path d="M0,0 L1,0 L1,1 L0,1 Z " fill="#CA9748" transform="translate(49,52)"/>
<path d="M0,0 L1,0 L1,1 L0,1 Z " fill="#D2B886" transform="translate(263,51)"/>
<path d="M0,0 L1,0 L1,1 L0,1 Z " fill="#E2C48F" transform="translate(262,49)"/>
<path d="M0,0 L1,0 L1,1 L0,1 Z " fill="#CE9B3D" transform="translate(51,49)"/>
<path d="M0,0 L1,0 L1,1 L0,1 Z " fill="#CD9639" transform="translate(52,48)"/>
<path d="M0,0 L1,0 L1,1 L0,1 Z " fill="#E3C28F" transform="translate(259,45)"/>
<path d="M0,0 L1,0 L1,1 L0,1 Z " fill="#CAA05F" transform="translate(54,45)"/>
<path d="M0,0 L1,0 L1,1 L0,1 Z " fill="#F5CF97" transform="translate(258,44)"/>
<path d="M0,0 L1,0 L1,1 L0,1 Z " fill="#C7983F" transform="translate(55,43)"/>
<path d="M0,0 L1,0 L1,1 L0,1 Z " fill="#E3C581" transform="translate(257,42)"/>
<path d="M0,0 L1,0 L1,1 L0,1 Z " fill="#CCA449" transform="translate(56,42)"/>
<path d="M0,0 L1,0 L1,1 L0,1 Z " fill="#E6CC9A" transform="translate(256,41)"/>
<path d="M0,0 L1,0 L1,1 L0,1 Z " fill="#CA9F49" transform="translate(57,41)"/>
<path d="M0,0 L1,0 L1,1 L0,1 Z " fill="#C29645" transform="translate(58,40)"/>
<path d="M0,0 L1,0 L1,1 L0,1 Z " fill="#C39A48" transform="translate(60,37)"/>
<path d="M0,0 L1,0 L1,1 L0,1 Z " fill="#CDA971" transform="translate(252,36)"/>
<path d="M0,0 L1,0 L1,1 L0,1 Z " fill="#C99E48" transform="translate(61,36)"/>
<path d="M0,0 L1,0 L1,1 L0,1 Z " fill="#D9B984" transform="translate(251,35)"/>
<path d="M0,0 L1,0 L1,1 L0,1 Z " fill="#C99E46" transform="translate(62,35)"/>
<path d="M0,0 L1,0 L1,1 L0,1 Z " fill="#DABD82" transform="translate(250,34)"/>
<path d="M0,0 L1,0 L1,1 L0,1 Z " fill="#C19F58" transform="translate(63,34)"/>
<path d="M0,0 L1,0 L1,1 L0,1 Z " fill="#DCBA7F" transform="translate(249,33)"/>
<path d="M0,0 L1,0 L1,1 L0,1 Z " fill="#BF9D59" transform="translate(64,33)"/>
<path d="M0,0 L1,0 L1,1 L0,1 Z " fill="#DCBF90" transform="translate(248,32)"/>
<path d="M0,0 L1,0 L1,1 L0,1 Z " fill="#CB9A4B" transform="translate(65,32)"/>
<path d="M0,0 L1,0 L1,1 L0,1 Z " fill="#DAC08E" transform="translate(247,31)"/>
<path d="M0,0 L1,0 L1,1 L0,1 Z " fill="#C79C4B" transform="translate(66,31)"/>
<path d="M0,0 L1,0 L1,1 L0,1 Z " fill="#DEC07F" transform="translate(246,30)"/>
<path d="M0,0 L1,0 L1,1 L0,1 Z " fill="#CC9B4C" transform="translate(67,30)"/>
<path d="M0,0 L1,0 L1,1 L0,1 Z " fill="#D8BE80" transform="translate(245,29)"/>
<path d="M0,0 L1,0 L1,1 L0,1 Z " fill="#D7BD81" transform="translate(244,28)"/>
<path d="M0,0 L1,0 L1,1 L0,1 Z " fill="#C8A96B" transform="translate(243,27)"/>
<path d="M0,0 L1,0 L1,1 L0,1 Z " fill="#E5C38D" transform="translate(240,25)"/>
<path d="M0,0 L1,0 L1,1 L0,1 Z " fill="#C79B4D" transform="translate(73,25)"/>
<path d="M0,0 L1,0 L1,1 L0,1 Z " fill="#F0D29D" transform="translate(239,24)"/>
<path d="M0,0 L1,0 L1,1 L0,1 Z " fill="#C99E44" transform="translate(74,24)"/>
<path d="M0,0 L1,0 L1,1 L0,1 Z " fill="#E4C385" transform="translate(238,23)"/>
<path d="M0,0 L1,0 L1,1 L0,1 Z " fill="#CA9840" transform="translate(80,20)"/>
<path d="M0,0 L1,0 L1,1 L0,1 Z " fill="#C1994D" transform="translate(87,15)"/>
<path d="M0,0 L1,0 L1,1 L0,1 Z " fill="#DCC28B" transform="translate(224,14)"/>
<path d="M0,0 L1,0 L1,1 L0,1 Z " fill="#E4C18D" transform="translate(214,9)"/>
</svg>
